<?xml version="1.0" encoding="UTF-8" standalone="no"?>
<svg xmlns="http://www.w3.org/2000/svg" fill="none" version="1.1" height="100%" width="100%" stroke-linecap="square" stroke-miterlimit="10" viewBox="0.0 0.0 968.0 575.0">
<g transform="translate(12,-2)">
<path stroke-linejoin="round" d="m60.43 343.38 15.492-5.76-2.433 5.32 289.71 132.89 2.43-5.31 5.76 15.5-15.49 5.76 2.43-5.32-289.71-132.89-2.43 5.31z" stroke="#000" stroke-linecap="butt" stroke-width="2" fill="#cfe2f3"/>
<path stroke-linejoin="round" d="m388.94 66.197c0-5.735 4.65-10.383 10.39-10.383h148.81c2.75 0 5.39 1.094 7.34 3.041 1.94 1.947 3.04 4.588 3.04 7.342v41.533c0 5.73-4.65 10.38-10.38 10.38h-148.81c-5.74 0-10.39-4.65-10.39-10.38z" stroke="#000" stroke-linecap="butt" stroke-width="2" fill="#cfe2f3"/>
<path fill="#000" d="m427.87 88.362 1.8 0.453q-0.56 2.219-2.03 3.383t-3.59 1.164q-2.21 0-3.58-0.899-1.38-0.898-2.1-2.593-0.72-1.696-0.72-3.649 0-2.125 0.81-3.703 0.8-1.578 2.3-2.398 1.5-0.821 3.3-0.821 2.05 0 3.44 1.039t1.94 2.914l-1.77 0.422q-0.47-1.484-1.37-2.164-0.91-0.68-2.27-0.68-1.56 0-2.62 0.75-1.05 0.75-1.48 2.024-0.43 1.273-0.43 2.617 0 1.734 0.51 3.023 0.5 1.29 1.57 1.93 1.07 0.641 2.31 0.641 1.51 0 2.56-0.867 1.05-0.868 1.42-2.586zm3.55 4.765v-13.593h1.68v4.875q1.17-1.36 2.95-1.36 1.09 0 1.9 0.43 0.8 0.43 1.15 1.195 0.36 0.766 0.36 2.203v6.25h-1.68v-6.25q0-1.25-0.54-1.82-0.55-0.57-1.53-0.57-0.75 0-1.4 0.383-0.65 0.382-0.93 1.046t-0.28 1.821v5.39h-1.68zm16.83 0v-1.453q-1.14 1.672-3.12 1.672-0.86 0-1.62-0.336t-1.12-0.836q-0.37-0.5-0.53-1.234-0.09-0.5-0.09-1.563v-6.109h1.67v5.469q0 1.312 0.09 1.765 0.16 0.657 0.68 1.032 0.51 0.375 1.26 0.375t1.41-0.383q0.65-0.383 0.93-1.047 0.27-0.664 0.27-1.93v-5.281h1.67v9.859h-1.5zm3.93 0v-9.859h1.5v1.406q1.09-1.625 3.14-1.625 0.89 0 1.64 0.321 0.75 0.32 1.11 0.843 0.37 0.524 0.53 1.227 0.09 0.469 0.09 1.625v6.062h-1.67v-6q0-1.015-0.2-1.523-0.19-0.508-0.69-0.805t-1.17-0.297q-1.07 0-1.84 0.672t-0.77 2.578v5.375h-1.67zm10.39 0v-13.593h1.67v7.75l3.95-4.016h2.16l-3.77 3.656 4.14 6.203h-2.06l-3.25-5.031-1.17 1.125v3.906h-1.67zm14.1-4.375 1.69-0.14q0.12 1.015 0.56 1.672 0.44 0.656 1.37 1.062t2.09 0.406q1.03 0 1.82-0.312 0.78-0.313 1.18-0.844 0.39-0.531 0.39-1.156 0-0.641-0.38-1.117-0.37-0.477-1.23-0.805-0.55-0.219-2.43-0.664-1.87-0.445-2.62-0.852-0.97-0.515-1.45-1.265-0.47-0.75-0.47-1.688 0-1.031 0.58-1.929 0.59-0.899 1.71-1.36 1.11-0.461 2.49-0.461 1.51 0 2.67 0.485 1.16 0.484 1.77 1.429 0.62 0.946 0.67 2.149l-1.72 0.125q-0.14-1.282-0.95-1.946-0.8-0.664-2.36-0.664-1.63 0-2.38 0.602-0.75 0.601-0.75 1.445 0 0.735 0.53 1.203 0.52 0.469 2.71 0.969 2.2 0.5 3.01 0.875 1.19 0.547 1.76 1.383t0.57 1.93q0 1.093-0.62 2.054-0.63 0.961-1.79 1.492-1.17 0.532-2.62 0.532-1.84 0-3.09-0.539t-1.97-1.618q-0.71-1.078-0.74-2.453zm19.59 1.203 1.72 0.219q-0.41 1.5-1.51 2.336t-2.82 0.836q-2.16 0-3.42-1.328-1.27-1.328-1.27-3.734 0-2.485 1.27-3.86 1.28-1.375 3.32-1.375 1.99 0 3.24 1.344t1.25 3.797q0 0.14-0.02 0.437h-7.34q0.09 1.625 0.92 2.485 0.83 0.859 2.06 0.859 0.91 0 1.56-0.477 0.65-0.476 1.04-1.539zm-5.49-2.703h5.5q-0.11-1.234-0.62-1.859-0.8-0.969-2.08-0.969-1.14 0-1.93 0.774-0.79 0.773-0.87 2.054zm9.1 5.875v-9.859h1.5v1.5q0.57-1.047 1.06-1.383 0.48-0.336 1.08-0.336 0.84 0 1.72 0.547l-0.58 1.547q-0.61-0.359-1.24-0.359-0.54 0-0.97 0.328t-0.62 0.906q-0.28 0.891-0.28 1.953v5.156h-1.67zm8.96 0-3.75-9.859h1.76l2.13 5.906q0.34 0.953 0.62 1.985 0.22-0.782 0.63-1.875l2.19-6.016h1.72l-3.74 9.859h-1.56zm13.34-3.172 1.72 0.219q-0.4 1.5-1.51 2.336-1.1 0.836-2.82 0.836-2.15 0-3.42-1.328-1.26-1.328-1.26-3.734 0-2.485 1.27-3.86t3.32-1.375q1.98 0 3.23 1.344t1.25 3.797q0 0.14-0.01 0.437h-7.35q0.1 1.625 0.93 2.485 0.82 0.859 2.06 0.859 0.91 0 1.55-0.477 0.65-0.476 1.04-1.539zm-5.48-2.703h5.5q-0.11-1.234-0.63-1.859-0.79-0.969-2.07-0.969-1.15 0-1.93 0.774-0.79 0.773-0.87 2.054zm9.09 5.875v-9.859h1.5v1.5q0.58-1.047 1.07-1.383 0.48-0.336 1.07-0.336 0.85 0 1.72 0.547l-0.58 1.547q-0.6-0.359-1.23-0.359-0.55 0-0.98 0.328t-0.61 0.906q-0.28 0.891-0.28 1.953v5.156h-1.68z"/>
<path stroke-linejoin="round" d="m398.71 469.22c0-5.74 4.65-10.39 10.39-10.39h132.24c2.75 0 5.39 1.1 7.34 3.04 1.95 1.95 3.04 4.59 3.04 7.35v41.53c0 5.73-4.65 10.38-10.38 10.38h-132.24c-5.74 0-10.39-4.65-10.39-10.38z" stroke="#000" stroke-linecap="butt" stroke-width="2" fill="#cfe2f3"/>
<path fill="#000" d="m429.36 491.38 1.8 0.45q-0.57 2.22-2.03 3.39-1.47 1.16-3.6 1.16-2.2 0-3.58-0.9-1.37-0.9-2.09-2.59-0.72-1.7-0.72-3.65 0-2.13 0.81-3.7 0.8-1.58 2.3-2.4t3.3-0.82q2.04 0 3.44 1.04 1.39 1.04 1.93 2.91l-1.76 0.42q-0.47-1.48-1.38-2.16-0.9-0.68-2.26-0.68-1.57 0-2.62 0.75-1.06 0.75-1.49 2.02-0.42 1.28-0.42 2.62 0 1.73 0.5 3.02 0.51 1.29 1.58 1.93t2.31 0.64q1.51 0 2.56-0.86 1.05-0.87 1.42-2.59zm3.55 4.77v-13.6h1.67v4.88q1.18-1.36 2.96-1.36 1.09 0 1.89 0.43 0.81 0.43 1.16 1.19 0.35 0.77 0.35 2.21v6.25h-1.67v-6.25q0-1.25-0.55-1.82-0.54-0.57-1.53-0.57-0.75 0-1.4 0.38-0.64 0.38-0.93 1.04-0.28 0.67-0.28 1.83v5.39h-1.67zm16.83 0v-1.46q-1.14 1.67-3.12 1.67-0.86 0-1.62-0.33-0.76-0.34-1.13-0.84-0.36-0.5-0.52-1.23-0.09-0.5-0.09-1.56v-6.11h1.67v5.47q0 1.31 0.09 1.76 0.16 0.66 0.67 1.03 0.52 0.38 1.27 0.38t1.41-0.39q0.65-0.38 0.92-1.04 0.28-0.67 0.28-1.93v-5.28h1.67v9.86h-1.5zm3.92 0v-9.86h1.5v1.4q1.1-1.62 3.14-1.62 0.89 0 1.64 0.32t1.12 0.84q0.37 0.53 0.52 1.23 0.1 0.47 0.1 1.62v6.07h-1.67v-6q0-1.02-0.2-1.53-0.19-0.51-0.69-0.8-0.5-0.3-1.18-0.3-1.06 0-1.83 0.67-0.78 0.67-0.78 2.58v5.38h-1.67zm10.39 0v-13.6h1.68v7.75l3.95-4.01h2.16l-3.77 3.65 4.14 6.21h-2.06l-3.25-5.04-1.17 1.13v3.91h-1.68zm14.11-4.38 1.69-0.14q0.12 1.02 0.56 1.67 0.44 0.66 1.37 1.06 0.93 0.41 2.08 0.41 1.03 0 1.82-0.31t1.18-0.85q0.39-0.53 0.39-1.15 0-0.64-0.37-1.12-0.38-0.48-1.24-0.8-0.54-0.22-2.42-0.67-1.87-0.44-2.62-0.85-0.97-0.51-1.45-1.26t-0.48-1.69q0-1.03 0.59-1.93t1.7-1.36q1.12-0.46 2.5-0.46 1.51 0 2.67 0.48 1.15 0.49 1.77 1.43 0.62 0.95 0.67 2.15l-1.72 0.13q-0.14-1.29-0.95-1.95-0.8-0.66-2.37-0.66-1.62 0-2.37 0.6t-0.75 1.44q0 0.74 0.53 1.21 0.52 0.46 2.71 0.96 2.2 0.5 3.01 0.88 1.19 0.55 1.76 1.38 0.57 0.84 0.57 1.93 0 1.1-0.63 2.06-0.62 0.96-1.79 1.49-1.16 0.53-2.61 0.53-1.85 0-3.1-0.54t-1.96-1.62q-0.71-1.07-0.74-2.45zm19.58 1.2 1.72 0.22q-0.4 1.5-1.51 2.34-1.1 0.83-2.82 0.83-2.15 0-3.42-1.32-1.26-1.33-1.26-3.74 0-2.48 1.27-3.86 1.27-1.37 3.32-1.37 1.98 0 3.23 1.34 1.25 1.35 1.25 3.8 0 0.14-0.01 0.44h-7.34q0.09 1.62 0.92 2.48t2.06 0.86q0.91 0 1.55-0.48 0.65-0.47 1.04-1.54zm-5.48-2.7h5.5q-0.11-1.23-0.63-1.86-0.79-0.97-2.07-0.97-1.14 0-1.93 0.78-0.79 0.77-0.87 2.05zm9.09 5.88v-9.86h1.5v1.5q0.58-1.05 1.07-1.39 0.48-0.33 1.07-0.33 0.85 0 1.72 0.54l-0.58 1.55q-0.6-0.36-1.23-0.36-0.55 0-0.98 0.33t-0.61 0.91q-0.28 0.89-0.28 1.95v5.16h-1.68zm8.97 0-3.75-9.86h1.76l2.13 5.9q0.34 0.96 0.62 1.99 0.22-0.78 0.63-1.88l2.18-6.01h1.72l-3.73 9.86h-1.56zm13.34-3.18 1.72 0.22q-0.41 1.5-1.51 2.34-1.1 0.83-2.82 0.83-2.16 0-3.42-1.32-1.27-1.33-1.27-3.74 0-2.48 1.28-3.86 1.27-1.37 3.32-1.37 1.98 0 3.23 1.34 1.25 1.35 1.25 3.8 0 0.14-0.01 0.44h-7.35q0.1 1.62 0.92 2.48 0.83 0.86 2.07 0.86 0.9 0 1.55-0.48 0.65-0.47 1.04-1.54zm-5.48-2.7h5.5q-0.11-1.23-0.63-1.86-0.8-0.97-2.08-0.97-1.14 0-1.93 0.78-0.79 0.77-0.86 2.05zm9.09 5.88v-9.86h1.5v1.5q0.58-1.05 1.06-1.39 0.49-0.33 1.08-0.33 0.84 0 1.72 0.54l-0.58 1.55q-0.61-0.36-1.23-0.36-0.55 0-0.98 0.33t-0.62 0.91q-0.28 0.89-0.28 1.95v5.16h-1.67z"/>
<path stroke-linejoin="round" d="m389.89 263.75c0-5.74 4.65-10.39 10.38-10.39h146.92c2.75 0 5.4 1.1 7.34 3.05 1.95 1.94 3.04 4.58 3.04 7.34v41.53c0 5.74-4.64 10.38-10.38 10.38h-146.92c-5.73 0-10.38-4.64-10.38-10.38z" stroke="#000" stroke-linecap="butt" stroke-width="2" fill="#cfe2f3"/>
<path fill="#000" d="m427.87 285.91 1.8 0.46q-0.56 2.21-2.03 3.38-1.47 1.16-3.59 1.16-2.21 0-3.58-0.9-1.38-0.89-2.1-2.59-0.72-1.69-0.72-3.65 0-2.12 0.81-3.7 0.8-1.58 2.3-2.4t3.3-0.82q2.05 0 3.44 1.04t1.94 2.91l-1.77 0.43q-0.47-1.49-1.37-2.17-0.91-0.68-2.27-0.68-1.56 0-2.62 0.75-1.05 0.75-1.48 2.03-0.43 1.27-0.43 2.61 0 1.74 0.51 3.03 0.5 1.28 1.57 1.93 1.07 0.64 2.31 0.64 1.51 0 2.56-0.87t1.42-2.59zm3.55 4.77v-13.6h1.68v4.88q1.17-1.36 2.95-1.36 1.09 0 1.9 0.43 0.8 0.43 1.15 1.2 0.36 0.76 0.36 2.2v6.25h-1.68v-6.25q0-1.25-0.54-1.82-0.55-0.57-1.53-0.57-0.75 0-1.4 0.38t-0.93 1.05q-0.28 0.66-0.28 1.82v5.39h-1.68zm16.83 0v-1.45q-1.14 1.67-3.12 1.67-0.86 0-1.62-0.34-0.76-0.33-1.12-0.83-0.37-0.5-0.53-1.24-0.09-0.5-0.09-1.56v-6.11h1.67v5.47q0 1.31 0.09 1.76 0.16 0.66 0.68 1.03 0.51 0.38 1.26 0.38t1.41-0.38q0.65-0.39 0.93-1.05 0.27-0.66 0.27-1.93v-5.28h1.67v9.86h-1.5zm3.93 0v-9.86h1.5v1.41q1.09-1.63 3.14-1.63 0.89 0 1.64 0.32t1.11 0.84q0.37 0.53 0.53 1.23 0.09 0.47 0.09 1.63v6.06h-1.67v-6q0-1.02-0.2-1.52-0.19-0.51-0.69-0.81t-1.17-0.3q-1.07 0-1.84 0.68-0.77 0.67-0.77 2.57v5.38h-1.67zm10.39 0v-13.6h1.67v7.75l3.95-4.01h2.16l-3.77 3.66 4.14 6.2h-2.06l-3.25-5.03-1.17 1.12v3.91h-1.67zm14.1-4.38 1.69-0.14q0.12 1.02 0.56 1.67 0.44 0.66 1.37 1.07 0.93 0.4 2.09 0.4 1.03 0 1.82-0.31 0.78-0.31 1.18-0.84 0.39-0.53 0.39-1.16 0-0.64-0.38-1.12-0.37-0.47-1.23-0.8-0.55-0.22-2.43-0.66-1.87-0.45-2.62-0.86-0.97-0.51-1.45-1.26-0.47-0.75-0.47-1.69 0-1.03 0.58-1.93 0.59-0.9 1.71-1.36 1.11-0.46 2.49-0.46 1.51 0 2.67 0.48 1.16 0.49 1.77 1.43 0.62 0.95 0.67 2.15l-1.72 0.13q-0.14-1.28-0.95-1.95-0.8-0.66-2.36-0.66-1.63 0-2.38 0.6t-0.75 1.45q0 0.73 0.53 1.2 0.52 0.47 2.71 0.97 2.2 0.5 3.01 0.87 1.19 0.55 1.76 1.39 0.57 0.83 0.57 1.92 0 1.1-0.62 2.06-0.63 0.96-1.79 1.49-1.17 0.53-2.62 0.53-1.84 0-3.09-0.54t-1.97-1.61q-0.71-1.08-0.74-2.46zm19.59 1.21 1.72 0.22q-0.41 1.5-1.51 2.33-1.1 0.84-2.82 0.84-2.16 0-3.42-1.33-1.27-1.33-1.27-3.74 0-2.48 1.27-3.85 1.28-1.38 3.32-1.38 1.99 0 3.24 1.34 1.25 1.35 1.25 3.8 0 0.14-0.02 0.44h-7.34q0.09 1.62 0.92 2.48t2.06 0.86q0.91 0 1.56-0.47 0.65-0.48 1.04-1.54zm-5.49-2.71h5.5q-0.11-1.23-0.62-1.86-0.8-0.96-2.08-0.96-1.14 0-1.93 0.77t-0.87 2.05zm9.1 5.88v-9.86h1.5v1.5q0.57-1.05 1.06-1.38 0.48-0.34 1.08-0.34 0.84 0 1.72 0.55l-0.58 1.54q-0.61-0.36-1.24-0.36-0.54 0-0.97 0.33t-0.62 0.91q-0.28 0.89-0.28 1.95v5.16h-1.67zm8.96 0-3.75-9.86h1.76l2.13 5.91q0.34 0.95 0.62 1.98 0.22-0.78 0.63-1.88l2.19-6.01h1.72l-3.74 9.86h-1.56zm13.34-3.17 1.72 0.22q-0.4 1.5-1.51 2.33-1.1 0.84-2.82 0.84-2.15 0-3.42-1.33-1.26-1.33-1.26-3.74 0-2.48 1.27-3.85 1.27-1.38 3.32-1.38 1.98 0 3.23 1.34 1.25 1.35 1.25 3.8 0 0.14-0.01 0.44h-7.35q0.1 1.62 0.93 2.48 0.82 0.86 2.06 0.86 0.91 0 1.55-0.47 0.65-0.48 1.04-1.54zm-5.48-2.71h5.5q-0.11-1.23-0.63-1.86-0.79-0.96-2.07-0.96-1.15 0-1.93 0.77-0.79 0.77-0.87 2.05zm9.09 5.88v-9.86h1.5v1.5q0.58-1.05 1.07-1.38 0.48-0.34 1.07-0.34 0.85 0 1.72 0.55l-0.58 1.54q-0.61-0.36-1.23-0.36-0.55 0-0.98 0.33t-0.61 0.91q-0.29 0.89-0.29 1.95v5.16h-1.67z"/>
<g stroke-linejoin="round" stroke="#000" stroke-linecap="butt" stroke-width="2">
<path d="m322.27 283.87 67.62 0.64"/>
<path d="m322.27 283.87 66.67-196.91"/>
<path d="m322.27 283.87 76.44 206.11"/>
</g>
<path fill="#f6c5be" d="m618.84 6.5696h189.07v37.69l-7.54 7.538h-181.53z"/>
<path fill="#c49d97" d="m800.37 51.798 1.51-6.031 6.03-1.507z"/>
<path stroke-linejoin="round" d="m800.37 51.798 1.51-6.031 6.03-1.507-7.54 7.538h-181.53v-45.228l189.07-0.0004v37.69" stroke="#000" stroke-linecap="butt" stroke-width="2" fill="none"/>
<path fill="#000" d="m692.13 24.852v-13.594h9.1719v1.5938h-7.375v4.2188h6.375v1.609h-6.375v6.1719h-1.79zm11.099-11.688v-1.9062h1.6718v1.9062h-1.6718zm0 11.688v-9.8594h1.6718v9.8594h-1.6718zm4.0979 0v-13.594h1.6718v13.594h-1.6718zm10.926-3.1719 1.7188 0.21875q-0.4063 1.5-1.5078 2.3359-1.1016 0.83593-2.8203 0.83593-2.1563 0-3.4219-1.3281t-1.2656-3.7344q0-2.4844 1.2734-3.8594t3.3203-1.375q1.9844 0 3.2344 1.3438t1.25 3.7969q0 0.14063-0.016 0.4375h-7.3438q0.094 1.625 0.9219 2.4844 0.8281 0.85937 2.0625 0.85937 0.9062 0 1.5547-0.47656 0.6484-0.47656 1.039-1.5391zm-5.4843-2.7031h5.5q-0.1094-1.2344-0.625-1.8594-0.7969-0.96875-2.0782-0.96875-1.1406 0-1.9297 0.77343-0.789 0.77344-0.8671 2.0547zm20.122 5.875h-1.6719v-10.641q-0.5938 0.57812-1.5781 1.1484-0.9844 0.57032-1.7657 0.86719v-1.625q1.4063-0.65625 2.4532-1.5938 1.0468-0.9375 1.4843-1.8125h1.0782v13.656z"/>
<path fill="#000" d="m689.8 41.54 1.7969 0.45313q-0.5625 2.2188-2.0312 3.3828-1.4688 1.1641-3.5938 1.1641-2.2031 0-3.5781-0.89843-1.375-0.89844-2.0938-2.5938-0.7187-1.6953-0.7187-3.6484 0-2.125 0.8047-3.7031t2.3047-2.3984q1.5-0.82032 3.2968-0.82032 2.0469 0 3.4375 1.0391 1.3907 1.0391 1.9375 2.9141l-1.7656 0.42187q-0.4687-1.4844-1.375-2.1641-0.9062-0.67969-2.2656-0.67969-1.5625 0-2.6172 0.75t-1.4844 2.0234-0.4297 2.6172q0 1.7344 0.5078 3.0234 0.5079 1.2891 1.5782 1.9297 1.0703 0.64063 2.3047 0.64063 1.5156 0 2.5625-0.86719 1.0468-0.86719 1.4218-2.5859zm3.5511 4.7656v-13.594h1.6719v4.875q1.1719-1.3594 2.9531-1.3594 1.0938 0 1.8985 0.42969 0.8046 0.42969 1.1562 1.1953 0.3516 0.76563 0.3516 2.2031v6.25h-1.6719v-6.25q0-1.25-0.5469-1.8203-0.5469-0.57032-1.5312-0.57032-0.75 0-1.3985 0.38282-0.6484 0.38281-0.9297 1.0469-0.2812 0.66406-0.2812 1.8203v5.3906h-1.6719zm16.829 0v-1.4531q-1.1406 1.6719-3.125 1.6719-0.8594 0-1.6172-0.33594t-1.125-0.83594-0.5234-1.2344q-0.094-0.5-0.094-1.5625v-6.1094h1.6719v5.4688q0 1.3125 0.094 1.7656 0.1563 0.65625 0.6719 1.0312 0.5156 0.375 1.2656 0.375t1.4063-0.38281q0.6562-0.38282 0.9297-1.0469 0.2734-0.66406 0.2734-1.9297v-5.2812h1.6719v9.8594h-1.5zm3.9226 0v-9.8594h1.5v1.4062q1.0937-1.625 3.1406-1.625 0.8906 0 1.6406 0.32032 0.75 0.32031 1.1172 0.84375 0.3672 0.52343 0.5235 1.2266 0.094 0.46875 0.094 1.625v6.0625h-1.6719v-6q0-1.0156-0.1953-1.5234-0.1953-0.50781-0.6953-0.80469-0.5-0.29687-1.1719-0.29687-1.0625 0-1.8359 0.67187-0.7734 0.67188-0.7734 2.5781v5.375h-1.6719zm10.391 0v-13.594h1.6719v7.75l3.9531-4.0156h2.1562l-3.7656 3.6562 4.1406 6.2031h-2.0625l-3.25-5.0312-1.1718 1.125v3.9062h-1.6719zm20.324 0h-1.6719v-10.641q-0.5938 0.57813-1.5781 1.1484-0.9844 0.57031-1.7657 0.86719v-1.625q1.4063-0.65625 2.4532-1.5938 1.0468-0.9375 1.4843-1.8125h1.0782v13.656z"/>
<path fill="#c6f3de" d="m618.84 60.333h189.07v45.067l-9.01 9.01h-180.06z"/>
<path fill="#9ec2b1" d="m798.9 114.41 1.8-7.21 7.21-1.8z"/>
<path stroke-linejoin="round" d="m798.9 114.41 1.8-7.21 7.21-1.8-9.01 9.01h-180.06v-54.077h189.07v45.067" stroke="#000" stroke-linecap="butt" stroke-width="2" fill="none"/>
<path fill="#000" d="m692.13 82.304v-13.594h9.1719v1.5938h-7.375v4.2188h6.375v1.6094h-6.375v6.1719h-1.79zm11.099-11.688v-1.9062h1.6718v1.9062h-1.6718zm0 11.688v-9.8594h1.6718v9.8594h-1.6718zm4.0979 0v-13.594h1.6718v13.594h-1.6718zm10.926-3.1719 1.7188 0.21875q-0.4063 1.5-1.5078 2.3359-1.1016 0.83594-2.8203 0.83594-2.1563 0-3.4219-1.3281t-1.2656-3.7344q0-2.4844 1.2734-3.8594t3.3203-1.375q1.9844 0 3.2344 1.3438t1.25 3.7969q0 0.14063-0.016 0.4375h-7.3438q0.094 1.625 0.9219 2.4844 0.8281 0.85937 2.0625 0.85937 0.9062 0 1.5547-0.47656 0.6484-0.47656 1.039-1.5391zm-5.4843-2.7031h5.5q-0.1094-1.2344-0.625-1.8594-0.7969-0.96875-2.0782-0.96875-1.1406 0-1.9297 0.77343-0.789 0.77344-0.8671 2.0547zm20.122 5.875h-1.6719v-10.641q-0.5938 0.57812-1.5781 1.1484-0.9844 0.57032-1.7657 0.86719v-1.625q1.4063-0.65625 2.4532-1.5938 1.0468-0.9375 1.4843-1.8125h1.0782v13.656z"/>
<path fill="#000" d="m689.8 98.991 1.7969 0.45313q-0.5625 2.2187-2.0312 3.3828-1.4688 1.1641-3.5938 1.1641-2.2031 0-3.5781-0.8985-1.375-0.8984-2.0938-2.5937-0.7187-1.6954-0.7187-3.6485 0-2.125 0.8047-3.7031t2.3047-2.3984q1.5-0.82031 3.2968-0.82031 2.0469 0 3.4375 1.0391 1.3907 1.0391 1.9375 2.9141l-1.7656 0.42187q-0.4687-1.4844-1.375-2.1641-0.9062-0.67969-2.2656-0.67969-1.5625 0-2.6172 0.75t-1.4844 2.0234-0.4297 2.6172q0 1.7344 0.5078 3.0234 0.5079 1.289 1.5782 1.9296 1.0703 0.6407 2.3047 0.6407 1.5156 0 2.5625-0.8672 1.0468-0.8672 1.4218-2.586zm3.5511 4.7656v-13.594h1.6719v4.875q1.1719-1.3594 2.9531-1.3594 1.0938 0 1.8985 0.42969 0.8046 0.42969 1.1562 1.1953 0.3516 0.76563 0.3516 2.2031v6.25h-1.6719v-6.25q0-1.25-0.5469-1.8203-0.5469-0.57031-1.5312-0.57031-0.75 0-1.3985 0.38281-0.6484 0.38282-0.9297 1.0469-0.2812 0.66406-0.2812 1.8203v5.3906h-1.6719zm16.829 0v-1.4531q-1.1406 1.6718-3.125 1.6718-0.8594 0-1.6172-0.3359t-1.125-0.8359-0.5234-1.2344q-0.094-0.5-0.094-1.5625v-6.1094h1.6719v5.4688q0 1.3126 0.094 1.7656 0.1563 0.6562 0.6719 1.0312t1.2656 0.375 1.4063-0.3828q0.6562-0.3828 0.9297-1.0469 0.2734-0.664 0.2734-1.9296v-5.2812h1.6719v9.8594h-1.5zm3.9226 0v-9.8594h1.5v1.4062q1.0937-1.625 3.1406-1.625 0.8906 0 1.6406 0.32031 0.75 0.32032 1.1172 0.84375 0.3672 0.52344 0.5235 1.2266 0.094 0.46875 0.094 1.625v6.0625h-1.6719v-6q0-1.0156-0.1953-1.5234-0.1953-0.50781-0.6953-0.80469-0.5-0.29687-1.1719-0.29687-1.0625 0-1.8359 0.67187-0.7734 0.67188-0.7734 2.5781v5.375h-1.6719zm10.391 0v-13.594h1.6719v7.75l3.9531-4.0156h2.1562l-3.7656 3.6562 4.1406 6.2032h-2.0625l-3.25-5.0313-1.1718 1.125v3.9063h-1.6719zm22.808-1.6094v1.6094h-8.9843q-0.016-0.6094 0.1875-1.1563 0.3437-0.9219 1.1015-1.8125t2.1797-2.0625q2.2188-1.8125 3-2.875 0.7813-1.0625 0.7813-2.0156 0-0.98437-0.711-1.6719-0.7109-0.6875-1.8515-0.6875-1.2032 0-1.9297 0.72656-0.7266 0.72656-0.7266 2.0078l-1.7187-0.17187q0.1718-1.9219 1.3281-2.9297 1.1562-1.0078 3.0937-1.0078 1.9532 0 3.0938 1.0859t1.1406 2.6953q0 0.8125-0.3359 1.6016-0.336 0.78906-1.1094 1.6562-0.7734 0.86719-2.5703 2.3984-1.5 1.2657-1.9297 1.711t-0.7109 0.8984h6.6718z"/>
<path fill="#e4d7f5" d="m618.84 124.05h189.07v45.07l-9.01 9.01h-180.06z"/>
<path fill="#b6abc3" d="m798.9 178.13 1.8-7.21 7.21-1.8z"/>
<path stroke-linejoin="round" d="m798.9 178.13 1.8-7.21 7.21-1.8-9.01 9.01h-180.06v-54.08h189.07v45.07" stroke="#000" stroke-linecap="butt" stroke-width="2" fill="none"/>
<path fill="#000" d="m692.13 146.02v-13.594h9.1719v1.5938h-7.375v4.2187h6.375v1.6094h-6.375v6.1719h-1.79zm11.099-11.688v-1.9063h1.6718v1.9063h-1.6718zm0 11.688v-9.8594h1.6718v9.8594h-1.6718zm4.0979 0v-13.594h1.6718v13.594h-1.6718zm10.926-3.1719 1.7188 0.2188q-0.4063 1.5-1.5078 2.3359-1.1016 0.8359-2.8203 0.8359-2.1563 0-3.4219-1.3281t-1.2656-3.7344q0-2.4843 1.2734-3.8593t3.3203-1.375q1.9844 0 3.2344 1.3437 1.25 1.3438 1.25 3.7969 0 0.1406-0.016 0.4375h-7.3438q0.094 1.625 0.9219 2.4844 0.8281 0.8593 2.0625 0.8593 0.9062 0 1.5547-0.4765 0.6484-0.4766 1.039-1.5391zm-5.4843-2.7031h5.5q-0.1094-1.2344-0.625-1.8594-0.7969-0.9687-2.0782-0.9687-1.1406 0-1.9297 0.7734-0.789 0.7734-0.8671 2.0547zm22.606 4.2656v1.6094h-8.9843q-0.016-0.6094 0.1875-1.1563 0.3437-0.9218 1.1015-1.8125 0.7578-0.8906 2.1797-2.0625 2.2188-1.8125 3-2.875 0.7813-1.0625 0.7813-2.0156 0-0.9844-0.711-1.6719-0.7109-0.6875-1.8515-0.6875-1.2032 0-1.9297 0.7266-0.7266 0.7266-0.7266 2.0078l-1.7187-0.1719q0.1718-1.9218 1.3281-2.9297 1.1562-1.0078 3.0937-1.0078 1.9532 0 3.0938 1.086 1.1406 1.0859 1.1406 2.6953 0 0.8125-0.3359 1.6015-0.336 0.7891-1.1094 1.6563t-2.5703 2.3984q-1.5 1.2657-1.9297 1.711t-0.7109 0.8984h6.6718z"/>
<path fill="#000" d="m689.8 162.71 1.7969 0.4531q-0.5625 2.2188-2.0312 3.3828-1.4688 1.1641-3.5938 1.1641-2.2031 0-3.5781-0.8985-1.375-0.8984-2.0938-2.5937-0.7187-1.6953-0.7187-3.6484 0-2.125 0.8047-3.7032 0.8047-1.5781 2.3047-2.3984t3.2968-0.8203q2.0469 0 3.4375 1.039 1.3907 1.0391 1.9375 2.9141l-1.7656 0.4219q-0.4687-1.4844-1.375-2.1641-0.9062-0.6797-2.2656-0.6797-1.5625 0-2.6172 0.75t-1.4844 2.0235q-0.4297 1.2734-0.4297 2.6172 0 1.7343 0.5078 3.0234 0.5079 1.2891 1.5782 1.9297t2.3047 0.6406q1.5156 0 2.5625-0.8672 1.0468-0.8672 1.4218-2.5859zm3.5511 4.7656v-13.594h1.6719v4.875q1.1719-1.3594 2.9531-1.3594 1.0938 0 1.8985 0.4297 0.8046 0.4297 1.1562 1.1953t0.3516 2.2031v6.25h-1.6719v-6.25q0-1.25-0.5469-1.8203t-1.5312-0.5703q-0.75 0-1.3985 0.3828-0.6484 0.3828-0.9297 1.0469-0.2812 0.664-0.2812 1.8203v5.3906h-1.6719zm16.829 0v-1.4531q-1.1406 1.6719-3.125 1.6719-0.8594 0-1.6172-0.336-0.7578-0.3359-1.125-0.8359t-0.5234-1.2344q-0.094-0.5-0.094-1.5625v-6.1094h1.6719v5.4688q0 1.3125 0.094 1.7656 0.1563 0.6563 0.6719 1.0313t1.2656 0.375 1.4063-0.3829q0.6562-0.3828 0.9297-1.0468 0.2734-0.6641 0.2734-1.9297v-5.2813h1.6719v9.8594h-1.5zm3.9226 0v-9.8594h1.5v1.4063q1.0937-1.625 3.1406-1.625 0.8906 0 1.6406 0.3203t1.1172 0.8437q0.3672 0.5235 0.5235 1.2266 0.094 0.4688 0.094 1.625v6.0625h-1.6719v-6q0-1.0156-0.1953-1.5234t-0.6953-0.8047-1.1719-0.2969q-1.0625 0-1.8359 0.6719t-0.7734 2.5781v5.375h-1.6719zm10.391 0v-13.594h1.6719v7.75l3.9531-4.0157h2.1562l-3.7656 3.6563 4.1406 6.2031h-2.0625l-3.25-5.0312-1.1718 1.125v3.9062h-1.6719zm20.324 0h-1.6719v-10.641q-0.5938 0.5781-1.5781 1.1484-0.9844 0.5703-1.7657 0.8672v-1.625q1.4063-0.6562 2.4532-1.5937 1.0468-0.9375 1.4843-1.8125h1.0782v13.656z"/>
<path fill="#c6f3de" d="m618.84 201.37h189.07v37.69l-7.54 7.53h-181.53z"/>
<path fill="#9ec2b1" d="m800.37 246.59 1.51-6.03 6.03-1.5z"/>
<path stroke-linejoin="round" d="m800.37 246.59 1.51-6.03 6.03-1.5-7.54 7.53h-181.53v-45.22h189.07v37.69" stroke="#000" stroke-linecap="butt" stroke-width="2" fill="none"/>
<path fill="#000" d="m692.13 219.65v-13.594h9.1719v1.5937h-7.375v4.2188h6.375v1.6093h-6.375v6.1719h-1.79zm11.099-11.688v-1.9062h1.6718v1.9062h-1.6718zm0 11.688v-9.8594h1.6718v9.8594h-1.6718zm4.0979 0v-13.594h1.6718v13.594h-1.6718zm10.926-3.1719 1.7188 0.2188q-0.4063 1.5-1.5078 2.3359-1.1016 0.836-2.8203 0.836-2.1563 0-3.4219-1.3282-1.2656-1.3281-1.2656-3.7343 0-2.4844 1.2734-3.8594t3.3203-1.375q1.9844 0 3.2344 1.3437 1.25 1.3438 1.25 3.7969 0 0.1406-0.016 0.4375h-7.3438q0.094 1.625 0.9219 2.4844 0.8281 0.8594 2.0625 0.8594 0.9062 0 1.5547-0.4766 0.6484-0.4766 1.039-1.5391zm-5.4843-2.7031h5.5q-0.1094-1.2344-0.625-1.8594-0.7969-0.9687-2.0782-0.9687-1.1406 0-1.9297 0.7734-0.789 0.7735-0.8671 2.0547zm20.122 5.875h-1.6719v-10.641q-0.5938 0.5781-1.5781 1.1484-0.9844 0.5703-1.7657 0.8672v-1.625q1.4063-0.6562 2.4532-1.5937 1.0468-0.9375 1.4843-1.8125h1.0782v13.656z"/>
<path fill="#000" d="m689.8 236.34 1.7969 0.4531q-0.5625 2.2188-2.0312 3.3828-1.4688 1.1641-3.5938 1.1641-2.2031 0-3.5781-0.8984-1.375-0.8985-2.0938-2.5938-0.7187-1.6953-0.7187-3.6484 0-2.125 0.8047-3.7031 0.8047-1.5782 2.3047-2.3985t3.2968-0.8203q2.0469 0 3.4375 1.0391 1.3907 1.039 1.9375 2.914l-1.7656 0.4219q-0.4687-1.4844-1.375-2.1641-0.9062-0.6796-2.2656-0.6796-1.5625 0-2.6172 0.75t-1.4844 2.0234-0.4297 2.6172q0 1.7344 0.5078 3.0234 0.5079 1.2891 1.5782 1.9297t2.3047 0.6406q1.5156 0 2.5625-0.8672 1.0468-0.8671 1.4218-2.5859zm3.5511 4.7656v-13.594h1.6719v4.875q1.1719-1.3594 2.9531-1.3594 1.0938 0 1.8985 0.4297 0.8046 0.4297 1.1562 1.1953t0.3516 2.2031v6.25h-1.6719v-6.25q0-1.25-0.5469-1.8203t-1.5312-0.5703q-0.75 0-1.3985 0.3828-0.6484 0.3828-0.9297 1.0469-0.2812 0.6641-0.2812 1.8203v5.3906h-1.6719zm16.829 0v-1.4531q-1.1406 1.6719-3.125 1.6719-0.8594 0-1.6172-0.336-0.7578-0.3359-1.125-0.8359t-0.5234-1.2344q-0.094-0.5-0.094-1.5625v-6.1093h1.6719v5.4687q0 1.3125 0.094 1.7656 0.1563 0.6563 0.6719 1.0313t1.2656 0.375 1.4063-0.3828q0.6562-0.3828 0.9297-1.0469 0.2734-0.6641 0.2734-1.9297v-5.2812h1.6719v9.8593h-1.5zm3.9226 0v-9.8593h1.5v1.4062q1.0937-1.625 3.1406-1.625 0.8906 0 1.6406 0.3203t1.1172 0.8438q0.3672 0.5234 0.5235 1.2265 0.094 0.4688 0.094 1.625v6.0625h-1.6719v-6q0-1.0156-0.1953-1.5234t-0.6953-0.8047-1.1719-0.2969q-1.0625 0-1.8359 0.6719t-0.7734 2.5781v5.375h-1.6719zm10.391 0v-13.594h1.6719v7.75l3.9531-4.0156h2.1562l-3.7656 3.6562 4.1406 6.2031h-2.0625l-3.25-5.0312-1.1718 1.125v3.9062h-1.6719zm22.808-1.6093v1.6093h-8.9843q-0.016-0.6093 0.1875-1.1562 0.3437-0.9219 1.1015-1.8125t2.1797-2.0625q2.2188-1.8125 3-2.875 0.7813-1.0625 0.7813-2.0156 0-0.9844-0.711-1.6719-0.7109-0.6875-1.8515-0.6875-1.2032 0-1.9297 0.7265-0.7266 0.7266-0.7266 2.0079l-1.7187-0.1719q0.1718-1.9219 1.3281-2.9297 1.1562-1.0078 3.0937-1.0078 1.9532 0 3.0938 1.0859 1.1406 1.086 1.1406 2.6953 0 0.8125-0.3359 1.6016-0.336 0.7891-1.1094 1.6562-0.7734 0.8672-2.5703 2.3985-1.5 1.2656-1.9297 1.7109t-0.7109 0.8985h6.6718z"/>
<path fill="#f6c5be" d="m618.84 255.13h189.07v45.07l-9.01 9.01h-180.06z"/>
<path fill="#c49d97" d="m798.9 309.21 1.8-7.21 7.21-1.8z"/>
<path stroke-linejoin="round" d="m798.9 309.21 1.8-7.21 7.21-1.8-9.01 9.01h-180.06v-54.08h189.07v45.07" stroke="#000" stroke-linecap="butt" stroke-width="2" fill="none"/>
<path fill="#000" d="m692.13 277.1v-13.594h9.1719v1.5937h-7.375v4.2188h6.375v1.6093h-6.375v6.1719h-1.79zm11.099-11.688v-1.9062h1.6718v1.9062h-1.6718zm0 11.688v-9.8594h1.6718v9.86h-1.6718zm4.0979 0v-13.594h1.6718v13.59h-1.6718zm10.926-3.1719 1.7188 0.2188q-0.4063 1.5-1.5078 2.3359-1.1016 0.836-2.8203 0.836-2.1563 0-3.4219-1.3282-1.2656-1.3281-1.2656-3.7343 0-2.4844 1.2734-3.8594t3.3203-1.375q1.9844 0 3.2344 1.3437 1.25 1.3438 1.25 3.7969 0 0.1406-0.016 0.4375h-7.3438q0.094 1.625 0.9219 2.4844 0.8281 0.8594 2.0625 0.8594 0.9062 0 1.5547-0.4766 0.6484-0.4766 1.039-1.5391zm-5.4843-2.7031h5.5q-0.1094-1.2344-0.625-1.8594-0.7969-0.9687-2.0782-0.9687-1.1406 0-1.9297 0.7734-0.789 0.7735-0.8671 2.0547zm20.122 5.875h-1.6719v-10.641q-0.5938 0.5781-1.5781 1.1484-0.9844 0.5703-1.7657 0.8672v-1.625q1.4063-0.6562 2.4532-1.5937 1.0468-0.9375 1.4843-1.8125h1.0782v13.656z"/>
<path fill="#000" d="m689.8 293.79 1.7969 0.4531q-0.5625 2.2188-2.0312 3.3829-1.4688 1.164-3.5938 1.164-2.2031 0-3.5781-0.8984-1.375-0.8985-2.0938-2.5938-0.7187-1.6953-0.7187-3.6484 0-2.125 0.8047-3.7031 0.8047-1.5782 2.3047-2.3985t3.2968-0.8203q2.0469 0 3.4375 1.0391 1.3907 1.039 1.9375 2.914l-1.7656 0.4219q-0.4687-1.4844-1.375-2.164-0.9062-0.6797-2.2656-0.6797-1.5625 0-2.6172 0.75t-1.4844 2.0234-0.4297 2.6172q0 1.7344 0.5078 3.0234 0.5079 1.2891 1.5782 1.9297t2.3047 0.6406q1.5156 0 2.5625-0.8671 1.0468-0.8672 1.4218-2.586zm3.5511 4.7656v-13.594h1.6719v4.875q1.1719-1.3594 2.9531-1.3594 1.0938 0 1.8985 0.4297 0.8046 0.4297 1.1562 1.1953t0.3516 2.2031v6.25h-1.6719v-6.25q0-1.25-0.5469-1.8203t-1.5312-0.5703q-0.75 0-1.3985 0.3828-0.6484 0.3828-0.9297 1.0469-0.2812 0.6641-0.2812 1.8203v5.3906h-1.6719zm16.829 0v-1.4531q-1.1406 1.6719-3.125 1.6719-0.8594 0-1.6172-0.3359-0.7578-0.336-1.125-0.836t-0.5234-1.2344q-0.094-0.5-0.094-1.5625v-6.1093h1.6719v5.4687q0 1.3125 0.094 1.7656 0.1563 0.6563 0.6719 1.0313t1.2656 0.375 1.4063-0.3828q0.6562-0.3828 0.9297-1.0469 0.2734-0.6641 0.2734-1.9297v-5.2812h1.6719v9.8593h-1.5zm3.9226 0v-9.8593h1.5v1.4062q1.0937-1.625 3.1406-1.625 0.8906 0 1.6406 0.3203t1.1172 0.8438q0.3672 0.5234 0.5235 1.2265 0.094 0.4688 0.094 1.625v6.0625h-1.6719v-6q0-1.0156-0.1953-1.5234t-0.6953-0.8047-1.1719-0.2969q-1.0625 0-1.8359 0.6719t-0.7734 2.5781v5.375h-1.6719zm10.391 0v-13.594h1.6719v7.75l3.9531-4.0156h2.1562l-3.7656 3.6562 4.1406 6.2031h-2.0625l-3.25-5.0312-1.1718 1.125v3.9062h-1.6719zm20.324 0h-1.6719v-10.641q-0.5938 0.5781-1.5781 1.1485-0.9844 0.5703-1.7657 0.8671v-1.625q1.4063-0.6562 2.4532-1.5937 1.0468-0.9375 1.4843-1.8125h1.0782v13.656z"/>
<path fill="#ffe6c7" d="m618.84 318.85h189.07v45.06l-9.01 9.02h-180.06z"/>
<path fill="#cbb79f" d="m798.9 372.93 1.8-7.22 7.21-1.8z"/>
<path stroke-linejoin="round" d="m798.9 372.93 1.8-7.22 7.21-1.8-9.01 9.02h-180.06v-54.08h189.07v45.06" stroke="#000" stroke-linecap="butt" stroke-width="2" fill="none"/>
<path fill="#000" d="m692.13 340.82v-13.594h9.1719v1.5938h-7.375v4.2187h6.375v1.6094h-6.375v6.1719h-1.79zm11.099-11.688v-1.9063h1.6718v1.9063h-1.6718zm0 11.688v-9.8594h1.6718v9.8594h-1.6718zm4.0979 0v-13.594h1.6718v13.594h-1.6718zm10.926-3.1719 1.7188 0.2188q-0.4063 1.5-1.5078 2.3359-1.1016 0.8359-2.8203 0.8359-2.1563 0-3.4219-1.3281t-1.2656-3.7344q0-2.4843 1.2734-3.8593t3.3203-1.375q1.9844 0 3.2344 1.3437 1.25 1.3438 1.25 3.7969 0 0.1406-0.016 0.4375h-7.3438q0.094 1.625 0.9219 2.4844 0.8281 0.8593 2.0625 0.8593 0.9062 0 1.5547-0.4765 0.6484-0.4766 1.039-1.5391zm-5.4843-2.7031h5.5q-0.1094-1.2344-0.625-1.8594-0.7969-0.9687-2.0782-0.9687-1.1406 0-1.9297 0.7734-0.789 0.7734-0.8671 2.0547zm22.606 4.2656v1.6094h-8.9843q-0.016-0.6094 0.1875-1.1563 0.3437-0.9218 1.1015-1.8125 0.7578-0.8906 2.1797-2.0625 2.2188-1.8125 3-2.875 0.7813-1.0625 0.7813-2.0156 0-0.9844-0.711-1.6719-0.7109-0.6875-1.8515-0.6875-1.2032 0-1.9297 0.7266-0.7266 0.7266-0.7266 2.0078l-1.7187-0.1719q0.1718-1.9218 1.3281-2.9297 1.1562-1.0078 3.0937-1.0078 1.9532 0 3.0938 1.086 1.1406 1.0859 1.1406 2.6953 0 0.8125-0.3359 1.6015-0.336 0.7891-1.1094 1.6563t-2.5703 2.3984q-1.5 1.2657-1.9297 1.711t-0.7109 0.8984h6.6718z"/>
<path fill="#000" d="m689.8 357.5 1.7969 0.4531q-0.5625 2.2188-2.0312 3.3828-1.4688 1.1641-3.5938 1.1641-2.2031 0-3.5781-0.8985-1.375-0.8984-2.0938-2.5937-0.7187-1.6953-0.7187-3.6484 0-2.125 0.8047-3.7032 0.8047-1.5781 2.3047-2.3984t3.2968-0.8203q2.0469 0 3.4375 1.039 1.3907 1.0391 1.9375 2.9141l-1.7656 0.4219q-0.4687-1.4844-1.375-2.1641-0.9062-0.6797-2.2656-0.6797-1.5625 0-2.6172 0.75t-1.4844 2.0235q-0.4297 1.2734-0.4297 2.6172 0 1.7343 0.5078 3.0234 0.5079 1.2891 1.5782 1.9297t2.3047 0.6406q1.5156 0 2.5625-0.8672 1.0468-0.8672 1.4218-2.5859zm3.5511 4.7656v-13.594h1.6719v4.875q1.1719-1.3594 2.9531-1.3594 1.0938 0 1.8985 0.4297 0.8046 0.4297 1.1562 1.1953t0.3516 2.2031v6.25h-1.6719v-6.25q0-1.25-0.5469-1.8203t-1.5312-0.5703q-0.75 0-1.3985 0.3828-0.6484 0.3828-0.9297 1.0469-0.2812 0.664-0.2812 1.8203v5.3906h-1.6719zm16.829 0v-1.4531q-1.1406 1.6719-3.125 1.6719-0.8594 0-1.6172-0.336-0.7578-0.3359-1.125-0.8359t-0.5234-1.2344q-0.094-0.5-0.094-1.5625v-6.1094h1.6719v5.4688q0 1.3125 0.094 1.7656 0.1563 0.6563 0.6719 1.0313t1.2656 0.375 1.4063-0.3829q0.6562-0.3828 0.9297-1.0468 0.2734-0.6641 0.2734-1.9297v-5.2813h1.6719v9.8594h-1.5zm3.9226 0v-9.8594h1.5v1.4063q1.0937-1.625 3.1406-1.625 0.8906 0 1.6406 0.3203t1.1172 0.8437q0.3672 0.5235 0.5235 1.2266 0.094 0.4688 0.094 1.625v6.0625h-1.6719v-6q0-1.0156-0.1953-1.5234t-0.6953-0.8047-1.1719-0.2969q-1.0625 0-1.8359 0.6719t-0.7734 2.5781v5.375h-1.6719zm10.391 0v-13.594h1.6719v7.75l3.9531-4.0157h2.1562l-3.7656 3.6563 4.1406 6.2031h-2.0625l-3.25-5.0312-1.1718 1.125v3.9062h-1.6719zm22.808-1.6094v1.6094h-8.9843q-0.016-0.6094 0.1875-1.1562 0.3437-0.9219 1.1015-1.8125 0.7578-0.8907 2.1797-2.0625 2.2188-1.8125 3-2.875 0.7813-1.0625 0.7813-2.0157 0-0.9843-0.711-1.6718-0.7109-0.6875-1.8515-0.6875-1.2032 0-1.9297 0.7265-0.7266 0.7266-0.7266 2.0078l-1.7187-0.1718q0.1718-1.9219 1.3281-2.9297 1.1562-1.0078 3.0937-1.0078 1.9532 0 3.0938 1.0859t1.1406 2.6953q0 0.8125-0.3359 1.6016-0.336 0.789-1.1094 1.6562t-2.5703 2.3985q-1.5 1.2656-1.9297 1.7109t-0.7109 0.8984h6.6718z"/>
<path fill="#c6f3de" d="m618.84 404.2h189.07v37.69l-7.54 7.54h-181.53z"/>
<path fill="#9ec2b1" d="m800.37 449.43 1.51-6.03 6.03-1.51z"/>
<path stroke-linejoin="round" d="m800.37 449.43 1.51-6.03 6.03-1.51-7.54 7.54h-181.53v-45.23h189.07v37.69" stroke="#000" stroke-linecap="butt" stroke-width="2" fill="none"/>
<path fill="#000" d="m692.13 422.48v-13.594h9.1719v1.5938h-7.375v4.2187h6.375v1.6094h-6.375v6.1719h-1.79zm11.099-11.688v-1.9063h1.6718v1.9063h-1.6718zm0 11.688v-9.8594h1.6718v9.8594h-1.6718zm4.0979 0v-13.594h1.6718v13.594h-1.6718zm10.926-3.1719 1.7188 0.2188q-0.4063 1.5-1.5078 2.3359-1.1016 0.8359-2.8203 0.8359-2.1563 0-3.4219-1.3281t-1.2656-3.7344q0-2.4843 1.2734-3.8593t3.3203-1.375q1.9844 0 3.2344 1.3437 1.25 1.3438 1.25 3.7969 0 0.1406-0.016 0.4375h-7.3438q0.094 1.625 0.9219 2.4844 0.8281 0.8593 2.0625 0.8593 0.9062 0 1.5547-0.4765 0.6484-0.4766 1.039-1.5391zm-5.4843-2.7031h5.5q-0.1094-1.2344-0.625-1.8594-0.7969-0.9687-2.0782-0.9687-1.1406 0-1.9297 0.7734-0.789 0.7734-0.8671 2.0547zm20.122 5.875h-1.6719v-10.641q-0.5938 0.5781-1.5781 1.1484-0.9844 0.5703-1.7657 0.8672v-1.625q1.4063-0.6563 2.4532-1.5938 1.0468-0.9375 1.4843-1.8125h1.0782v13.656z"/>
<path fill="#000" d="m689.8 439.17 1.7969 0.4531q-0.5625 2.2188-2.0312 3.3828-1.4688 1.1641-3.5938 1.1641-2.2031 0-3.5781-0.8985-1.375-0.8984-2.0938-2.5937-0.7187-1.6953-0.7187-3.6484 0-2.125 0.8047-3.7032 0.8047-1.5781 2.3047-2.3984t3.2968-0.8203q2.0469 0 3.4375 1.039 1.3907 1.0391 1.9375 2.9141l-1.7656 0.4219q-0.4687-1.4844-1.375-2.1641-0.9062-0.6797-2.2656-0.6797-1.5625 0-2.6172 0.75t-1.4844 2.0235q-0.4297 1.2734-0.4297 2.6172 0 1.7343 0.5078 3.0234 0.5079 1.2891 1.5782 1.9297t2.3047 0.6406q1.5156 0 2.5625-0.8672 1.0468-0.8672 1.4218-2.5859zm3.5511 4.7656v-13.594h1.6719v4.875q1.1719-1.3594 2.9531-1.3594 1.0938 0 1.8985 0.4297 0.8046 0.4297 1.1562 1.1953t0.3516 2.2031v6.25h-1.6719v-6.25q0-1.25-0.5469-1.8203t-1.5312-0.5703q-0.75 0-1.3985 0.3828-0.6484 0.3828-0.9297 1.0469-0.2812 0.664-0.2812 1.8203v5.3906h-1.6719zm16.829 0v-1.4531q-1.1406 1.6719-3.125 1.6719-0.8594 0-1.6172-0.336-0.7578-0.3359-1.125-0.8359t-0.5234-1.2344q-0.094-0.5-0.094-1.5625v-6.1094h1.6719v5.4688q0 1.3125 0.094 1.7656 0.1563 0.6563 0.6719 1.0313t1.2656 0.375 1.4063-0.3829q0.6562-0.3828 0.9297-1.0468 0.2734-0.6641 0.2734-1.9297v-5.2813h1.6719v9.8594h-1.5zm3.9226 0v-9.8594h1.5v1.4063q1.0937-1.625 3.1406-1.625 0.8906 0 1.6406 0.3203t1.1172 0.8437q0.3672 0.5235 0.5235 1.2266 0.094 0.4688 0.094 1.625v6.0625h-1.6719v-6q0-1.0156-0.1953-1.5234t-0.6953-0.8047-1.1719-0.2969q-1.0625 0-1.8359 0.6719t-0.7734 2.5781v5.375h-1.6719zm10.391 0v-13.594h1.6719v7.75l3.9531-4.0157h2.1562l-3.7656 3.6563 4.1406 6.2031h-2.0625l-3.25-5.0312-1.1718 1.125v3.9062h-1.6719zm22.808-1.6094v1.6094h-8.9843q-0.016-0.6094 0.1875-1.1562 0.3437-0.9219 1.1015-1.8125 0.7578-0.8907 2.1797-2.0625 2.2188-1.8125 3-2.875 0.7813-1.0625 0.7813-2.0157 0-0.9843-0.711-1.6718-0.7109-0.6875-1.8515-0.6875-1.2032 0-1.9297 0.7265-0.7266 0.7266-0.7266 2.0078l-1.7187-0.1718q0.1718-1.9219 1.3281-2.9297 1.1562-1.0078 3.0937-1.0078 1.9532 0 3.0938 1.0859t1.1406 2.6953q0 0.8125-0.3359 1.6016-0.336 0.789-1.1094 1.6562t-2.5703 2.3985q-1.5 1.2656-1.9297 1.7109t-0.7109 0.8984h6.6718z"/>
<path fill="#e4d7f5" d="m618.84 457.97h189.07v45.06l-9.01 9.01h-180.06z"/>
<path fill="#b6abc3" d="m798.9 512.04 1.8-7.21 7.21-1.8z"/>
<path stroke-linejoin="round" d="m798.9 512.04 1.8-7.21 7.21-1.8-9.01 9.01h-180.06v-54.07h189.07v45.06" stroke="#000" stroke-linecap="butt" stroke-width="2" fill="none"/>
<path fill="#000" d="m692.13 479.94v-13.594h9.1719v1.5938h-7.375v4.2187h6.375v1.6094h-6.375v6.1719h-1.79zm11.099-11.688v-1.9063h1.6718v1.9063h-1.6718zm0 11.688v-9.8594h1.6718v9.8594h-1.6718zm4.0979 0v-13.594h1.6718v13.594h-1.6718zm10.926-3.1719 1.7188 0.2188q-0.4063 1.5-1.5078 2.3359-1.1016 0.8359-2.8203 0.8359-2.1563 0-3.4219-1.3281t-1.2656-3.7344q0-2.4843 1.2734-3.8593t3.3203-1.375q1.9844 0 3.2344 1.3437 1.25 1.3438 1.25 3.7969 0 0.1406-0.016 0.4375h-7.3438q0.094 1.625 0.9219 2.4844 0.8281 0.8593 2.0625 0.8593 0.9062 0 1.5547-0.4765 0.6484-0.4766 1.039-1.5391zm-5.4843-2.7031h5.5q-0.1094-1.2344-0.625-1.8594-0.7969-0.9687-2.0782-0.9687-1.1406 0-1.9297 0.7734-0.789 0.7734-0.8671 2.0547zm22.606 4.2656v1.6094h-8.9843q-0.016-0.6094 0.1875-1.1563 0.3437-0.9218 1.1015-1.8125 0.7578-0.8906 2.1797-2.0625 2.2188-1.8125 3-2.875 0.7813-1.0625 0.7813-2.0156 0-0.9844-0.711-1.6719-0.7109-0.6875-1.8515-0.6875-1.2032 0-1.9297 0.7266-0.7266 0.7266-0.7266 2.0078l-1.7187-0.1719q0.1718-1.9218 1.3281-2.9296 1.1562-1.0079 3.0937-1.0079 1.9532 0 3.0938 1.086 1.1406 1.0859 1.1406 2.6953 0 0.8125-0.3359 1.6016-0.336 0.789-1.1094 1.6562t-2.5703 2.3984q-1.5 1.2657-1.9297 1.711t-0.7109 0.8984h6.6718z"/>
<path fill="#000" d="m689.8 496.62 1.7969 0.4531q-0.5625 2.2188-2.0312 3.3828-1.4688 1.1641-3.5938 1.1641-2.2031 0-3.5781-0.8984-1.375-0.8985-2.0938-2.5938-0.7187-1.6953-0.7187-3.6484 0-2.125 0.8047-3.7032 0.8047-1.5781 2.3047-2.3984t3.2968-0.8203q2.0469 0 3.4375 1.0391 1.3907 1.039 1.9375 2.914l-1.7656 0.4219q-0.4687-1.4844-1.375-2.1641-0.9062-0.6797-2.2656-0.6797-1.5625 0-2.6172 0.75t-1.4844 2.0235q-0.4297 1.2734-0.4297 2.6172 0 1.7343 0.5078 3.0234 0.5079 1.2891 1.5782 1.9297t2.3047 0.6406q1.5156 0 2.5625-0.8672 1.0468-0.8672 1.4218-2.5859zm3.5511 4.7656v-13.594h1.6719v4.875q1.1719-1.3594 2.9531-1.3594 1.0938 0 1.8985 0.4297 0.8046 0.4297 1.1562 1.1953t0.3516 2.2031v6.25h-1.6719v-6.25q0-1.25-0.5469-1.8203t-1.5312-0.5703q-0.75 0-1.3985 0.3828-0.6484 0.3828-0.9297 1.0469-0.2812 0.664-0.2812 1.8203v5.3906h-1.6719zm16.829 0v-1.4531q-1.1406 1.6719-3.125 1.6719-0.8594 0-1.6172-0.336-0.7578-0.3359-1.125-0.8359t-0.5234-1.2344q-0.094-0.5-0.094-1.5625v-6.1094h1.6719v5.4688q0 1.3125 0.094 1.7656 0.1563 0.6563 0.6719 1.0313t1.2656 0.375 1.4063-0.3828q0.6562-0.3829 0.9297-1.0469 0.2734-0.6641 0.2734-1.9297v-5.2813h1.6719v9.8594h-1.5zm3.9226 0v-9.8594h1.5v1.4063q1.0937-1.625 3.1406-1.625 0.8906 0 1.6406 0.3203t1.1172 0.8438q0.3672 0.5234 0.5235 1.2265 0.094 0.4688 0.094 1.625v6.0625h-1.6719v-6q0-1.0156-0.1953-1.5234t-0.6953-0.8047-1.1719-0.2969q-1.0625 0-1.8359 0.6719t-0.7734 2.5781v5.375h-1.6719zm10.391 0v-13.594h1.6719v7.75l3.9531-4.0157h2.1562l-3.7656 3.6563 4.1406 6.2031h-2.0625l-3.25-5.0312-1.1718 1.125v3.9062h-1.6719zm20.324 0h-1.6719v-10.641q-0.5938 0.5781-1.5781 1.1484-0.9844 0.5703-1.7657 0.8672v-1.625q1.4063-0.6562 2.4532-1.5937 1.0468-0.9375 1.4843-1.8125h1.0782v13.656z"/>
<path fill="#ffe6c7" d="m618.84 521.68h189.07v45.07l-9.01 9.01h-180.06z"/>
<path fill="#cbb79f" d="m798.9 575.76 1.8-7.21 7.21-1.8z"/>
<path stroke-linejoin="round" d="m798.9 575.76 1.8-7.21 7.21-1.8-9.01 9.01h-180.06v-54.08h189.07v45.07" stroke="#000" stroke-linecap="butt" stroke-width="2" fill="none"/>
<path fill="#000" d="m692.13 543.65v-13.594h9.1719v1.5937h-7.375v4.2188h6.375v1.6094h-6.375v6.1718h-1.79zm11.099-11.688v-1.9062h1.6718v1.9062h-1.6718zm0 11.688v-9.8593h1.6718v9.8593h-1.6718zm4.0979 0v-13.594h1.6718v13.594h-1.6718zm10.926-3.1718 1.7188 0.2187q-0.4063 1.5-1.5078 2.336-1.1016 0.8359-2.8203 0.8359-2.1563 0-3.4219-1.3281-1.2656-1.3282-1.2656-3.7344 0-2.4844 1.2734-3.8594t3.3203-1.375q1.9844 0 3.2344 1.3438 1.25 1.3437 1.25 3.7968 0 0.1407-0.016 0.4375h-7.3438q0.094 1.625 0.9219 2.4844 0.8281 0.8594 2.0625 0.8594 0.9062 0 1.5547-0.4766 0.6484-0.4765 1.039-1.539zm-5.4843-2.7032h5.5q-0.1094-1.2343-0.625-1.8593-0.7969-0.9688-2.0782-0.9688-1.1406 0-1.9297 0.7735-0.789 0.7734-0.8671 2.0546zm22.606 4.2657v1.6093h-8.9843q-0.016-0.6093 0.1875-1.1562 0.3437-0.9219 1.1015-1.8125t2.1797-2.0625q2.2188-1.8125 3-2.875 0.7813-1.0625 0.7813-2.0156 0-0.9844-0.711-1.6719-0.7109-0.6875-1.8515-0.6875-1.2032 0-1.9297 0.7266-0.7266 0.7265-0.7266 2.0078l-1.7187-0.1719q0.1718-1.9219 1.3281-2.9297 1.1562-1.0078 3.0937-1.0078 1.9532 0 3.0938 1.0859 1.1406 1.086 1.1406 2.6953 0 0.8125-0.3359 1.6016-0.336 0.7891-1.1094 1.6563-0.7734 0.8671-2.5703 2.3984-1.5 1.2656-1.9297 1.7109t-0.7109 0.8985h6.6718z"/>
<path fill="#000" d="m689.8 560.34 1.7969 0.4532q-0.5625 2.2187-2.0312 3.3828-1.4688 1.164-3.5938 1.164-2.2031 0-3.5781-0.8984t-2.0938-2.5937q-0.7187-1.6954-0.7187-3.6485 0-2.125 0.8047-3.7031t2.3047-2.3984q1.5-0.8204 3.2968-0.8204 2.0469 0 3.4375 1.0391 1.3907 1.0391 1.9375 2.9141l-1.7656 0.4218q-0.4687-1.4843-1.375-2.164-0.9062-0.6797-2.2656-0.6797-1.5625 0-2.6172 0.75t-1.4844 2.0234q-0.4297 1.2735-0.4297 2.6172 0 1.7344 0.5078 3.0235 0.5079 1.289 1.5782 1.9296 1.0703 0.6407 2.3047 0.6407 1.5156 0 2.5625-0.8672 1.0468-0.8672 1.4218-2.586zm3.5511 4.7657v-13.594h1.6719v4.875q1.1719-1.3594 2.9531-1.3594 1.0938 0 1.8985 0.4297 0.8046 0.4297 1.1562 1.1953 0.3516 0.7657 0.3516 2.2032v6.25h-1.6719v-6.25q0-1.25-0.5469-1.8203-0.5469-0.5704-1.5312-0.5704-0.75 0-1.3985 0.3829-0.6484 0.3828-0.9297 1.0468-0.2812 0.6641-0.2812 1.8203v5.3907h-1.6719zm16.829 0v-1.4532q-1.1406 1.6719-3.125 1.6719-0.8594 0-1.6172-0.3359-0.7578-0.336-1.125-0.836t-0.5234-1.2343q-0.094-0.5-0.094-1.5625v-6.1094h1.6719v5.4687q0 1.3125 0.094 1.7657 0.1563 0.6562 0.6719 1.0312t1.2656 0.375 1.4063-0.3828q0.6562-0.3828 0.9297-1.0469 0.2734-0.664 0.2734-1.9297v-5.2812h1.6719v9.8594h-1.5zm3.9226 0v-9.8594h1.5v1.4062q1.0937-1.625 3.1406-1.625 0.8906 0 1.6406 0.3204 0.75 0.3203 1.1172 0.8437t0.5235 1.2266q0.094 0.4687 0.094 1.625v6.0625h-1.6719v-6q0-1.0157-0.1953-1.5235t-0.6953-0.8047q-0.5-0.2968-1.1719-0.2968-1.0625 0-1.8359 0.6718-0.7734 0.6719-0.7734 2.5782v5.375h-1.6719zm10.391 0v-13.594h1.6719v7.75l3.9531-4.0156h2.1562l-3.7656 3.6562 4.1406 6.2032h-2.0625l-3.25-5.0313-1.1718 1.125v3.9063h-1.6719zm22.808-1.6094v1.6094h-8.9843q-0.016-0.6094 0.1875-1.1563 0.3437-0.9219 1.1015-1.8125t2.1797-2.0625q2.2188-1.8125 3-2.875 0.7813-1.0625 0.7813-2.0156 0-0.9844-0.711-1.6719-0.7109-0.6875-1.8515-0.6875-1.2032 0-1.9297 0.7266-0.7266 0.7265-0.7266 2.0078l-1.7187-0.1719q0.1718-1.9219 1.3281-2.9297 1.1562-1.0078 3.0937-1.0078 1.9532 0 3.0938 1.086 1.1406 1.0859 1.1406 2.6953 0 0.8125-0.3359 1.6015-0.336 0.7891-1.1094 1.6563t-2.5703 2.3984q-1.5 1.2656-1.9297 1.711-0.4297 0.4453-0.7109 0.8984h6.6718z"/>
<g stroke-linejoin="round" stroke="#000" stroke-linecap="butt" stroke-width="2">
<path d="m558.52 86.979 60.31-57.795"/>
<path d="m561.04 84.538 57.8 2.835"/>
<path d="m558.52 86.963 60.32 64.127"/>
<path d="m557.57 284.51 61.27-60.53"/>
<path d="m559.53 285.57 59.31-3.4"/>
<path d="m557.57 284.51 61.27 61.38"/>
<path d="m551.72 489.98 67.12-63.16"/>
<path d="m551.72 489.98 67.12-4.97"/>
<path d="m551.72 489.98 67.12 58.74"/>
</g>
</g>
<g stroke-width="2" stroke-linecap="butt" transform="translate(12,-2)">
<g stroke="#efa093">
<path stroke-linejoin="round" d="m896.47 269.2-84.41-228.76"/>
<path fill="#efa093" d="m815.16 39.298-6.24-7.371 0.05 9.658z"/>
<path stroke-linejoin="round" d="m896.47 269.2-76.69 11.23"/>
<path fill="#efa093" d="m819.31 277.16-8.51 4.59 9.46 1.95z"/>
</g>
<g stroke="#42d692">
<path stroke-linejoin="round" d="m896.47 317.2-84.24-218.63"/>
<path fill="#42d692" d="m815.31 97.382-6.35-7.281 0.18 9.657z"/>
<path stroke-linejoin="round" d="m896.47 317.2-81.02 100.28"/>
<path fill="#42d692" d="m812.88 415.41-3.13 9.13 8.27-4.98z"/>
<path stroke-linejoin="round" d="m896.47 317.2-80.29-84.52"/>
<path fill="#42d692" d="m818.57 230.4-8.65-4.3 3.86 8.86z"/>
</g>
</g>
<path fill="#000" d="m867.69 297.36v-9.86h1.5v1.5q0.58-1.05 1.06-1.38 0.49-0.34 1.08-0.34 0.85 0 1.72 0.55l-0.58 1.55q-0.61-0.36-1.23-0.36-0.55 0-0.98 0.33-0.43 0.32-0.62 0.9-0.28 0.89-0.28 1.95v5.16h-1.67zm12.98-3.17 1.72 0.22q-0.41 1.5-1.51 2.33-1.1 0.84-2.82 0.84-2.16 0-3.42-1.33-1.27-1.33-1.27-3.73 0-2.49 1.28-3.86 1.27-1.38 3.32-1.38 1.98 0 3.23 1.35 1.25 1.34 1.25 3.79 0 0.14-0.01 0.44h-7.35q0.1 1.63 0.92 2.49 0.83 0.85 2.07 0.85 0.9 0 1.55-0.47 0.65-0.48 1.04-1.54zm-5.48-2.7h5.5q-0.11-1.24-0.63-1.86-0.8-0.97-2.08-0.97-1.14 0-1.93 0.77t-0.86 2.06zm15.5 5.87v-1.25q-0.94 1.47-2.75 1.47-1.18 0-2.17-0.65t-1.53-1.81q-0.54-1.17-0.54-2.68 0-1.47 0.49-2.67 0.5-1.21 1.47-1.85 0.98-0.64 2.2-0.64 0.89 0 1.58 0.38 0.7 0.37 1.14 0.98v-4.87h1.65v13.59h-1.54zm-5.29-4.92q0 1.89 0.81 2.83 0.8 0.93 1.88 0.93 1.1 0 1.86-0.89 0.77-0.89 0.77-2.73 0-2.02-0.78-2.96-0.79-0.95-1.93-0.95-1.11 0-1.86 0.91t-0.75 2.86zm15.72 4.92v-1.45q-1.14 1.67-3.12 1.67-0.86 0-1.62-0.34-0.76-0.33-1.12-0.83-0.37-0.5-0.53-1.24-0.09-0.5-0.09-1.56v-6.11h1.67v5.47q0 1.31 0.1 1.77 0.15 0.65 0.67 1.03 0.51 0.37 1.26 0.37t1.41-0.38 0.93-1.05q0.27-0.66 0.27-1.93v-5.28h1.67v9.86h-1.5zm3.93 0v-9.86h1.5v1.41q1.09-1.63 3.14-1.63 0.89 0 1.64 0.32t1.12 0.85q0.36 0.52 0.52 1.22 0.09 0.47 0.09 1.63v6.06h-1.67v-6q0-1.01-0.19-1.52-0.2-0.51-0.7-0.81-0.5-0.29-1.17-0.29-1.06 0-1.84 0.67-0.77 0.67-0.77 2.58v5.37h-1.67zm16.76 0v-1.25q-0.93 1.47-2.75 1.47-1.17 0-2.16-0.65t-1.53-1.81q-0.54-1.17-0.54-2.68 0-1.47 0.49-2.67 0.49-1.21 1.47-1.85t2.19-0.64q0.9 0 1.59 0.38 0.7 0.37 1.13 0.98v-4.87h1.66v13.59h-1.55zm-5.28-4.92q0 1.89 0.81 2.83 0.8 0.93 1.88 0.93 1.09 0 1.86-0.89 0.76-0.89 0.76-2.73 0-2.02-0.78-2.96-0.78-0.95-1.92-0.95-1.11 0-1.86 0.91t-0.75 2.86zm15.71 3.7q-0.94 0.8-1.8 1.12t-1.84 0.32q-1.61 0-2.49-0.79-0.87-0.79-0.87-2.02 0-0.74 0.32-1.33 0.33-0.59 0.86-0.95t1.21-0.55q0.5-0.14 1.48-0.25 2.03-0.25 2.99-0.58 0-0.34 0-0.44 0-1.01-0.47-1.43-0.64-0.57-1.91-0.57-1.17 0-1.73 0.41-0.57 0.41-0.83 1.47l-1.64-0.24q0.23-1.04 0.74-1.68t1.47-1q0.96-0.35 2.24-0.35 1.27 0 2.05 0.3t1.15 0.75q0.38 0.45 0.52 1.14 0.09 0.42 0.09 1.53v2.24q0 2.32 0.1 2.94 0.11 0.62 0.43 1.18h-1.75q-0.26-0.51-0.32-1.22zm-0.14-3.72q-0.91 0.36-2.74 0.63-1.03 0.14-1.45 0.33-0.42 0.18-0.66 0.54-0.23 0.36-0.23 0.8 0 0.67 0.5 1.12 0.51 0.44 1.48 0.44t1.72-0.43 1.11-1.15q0.27-0.57 0.27-1.67v-0.61zm4.07 4.94v-9.86h1.5v1.41q1.1-1.63 3.14-1.63 0.89 0 1.65 0.32 0.74 0.32 1.11 0.85 0.37 0.52 0.53 1.22 0.09 0.47 0.09 1.63v6.06h-1.67v-6q0-1.01-0.2-1.52-0.19-0.51-0.69-0.81-0.5-0.29-1.17-0.29-1.07 0-1.84 0.67t-0.77 2.58v5.37h-1.68zm14.04-1.5 0.23 1.49q-0.7 0.14-1.27 0.14-0.9 0-1.4-0.29t-0.7-0.75q-0.21-0.46-0.21-1.98v-5.66h-1.23v-1.31h1.23v-2.44l1.66-1v3.44h1.69v1.31h-1.69v5.75q0 0.72 0.08 0.93 0.09 0.2 0.29 0.32 0.21 0.13 0.58 0.13 0.27 0 0.74-0.08z"/>
<g stroke-linejoin="round" stroke="#000" stroke-linecap="butt" stroke-dasharray="4.0,3.0" fill="#ccc">
<path opacity=".5" d="m260.43 382.61c0-5.74 4.65-10.38 10.38-10.38h83.14c2.76 0 5.4 1.09 7.34 3.04 1.95 1.94 3.05 4.59 3.05 7.34v41.53c0 5.74-4.65 10.38-10.39 10.38h-83.14c-5.73 0-10.38-4.64-10.38-10.38z"/>
<path opacity=".5" d="m248.43 370.61c0-5.74 4.65-10.38 10.38-10.38h83.14c2.76 0 5.4 1.09 7.34 3.04 1.95 1.94 3.05 4.59 3.05 7.34v41.53c0 5.74-4.65 10.38-10.39 10.38h-83.14c-5.73 0-10.38-4.64-10.38-10.38z"/>
<path opacity=".5" d="m236.43 358.61c0-5.74 4.65-10.38 10.38-10.38h83.14c2.76 0 5.4 1.09 7.34 3.04 1.95 1.94 3.05 4.59 3.05 7.34v41.53c0 5.74-4.65 10.38-10.39 10.38h-83.14c-5.73 0-10.38-4.64-10.38-10.38z"/>
</g>
<g transform="translate(12,-2)">
<path fill="#000" d="m243.53 372.44 1.69-0.14q0.12 1.01 0.56 1.67t1.37 1.06q0.93 0.41 2.09 0.41 1.03 0 1.82-0.31 0.78-0.32 1.18-0.85 0.39-0.53 0.39-1.15 0-0.65-0.38-1.12-0.37-0.48-1.23-0.81-0.55-0.22-2.43-0.66-1.87-0.45-2.62-0.85-0.97-0.52-1.45-1.27-0.47-0.75-0.47-1.69 0-1.03 0.58-1.92 0.59-0.9 1.71-1.36 1.11-0.47 2.49-0.47 1.51 0 2.67 0.49 1.16 0.48 1.77 1.43 0.62 0.94 0.67 2.15l-1.72 0.12q-0.14-1.28-0.95-1.94-0.8-0.67-2.36-0.67-1.63 0-2.38 0.6-0.75 0.61-0.75 1.45 0 0.73 0.53 1.2 0.52 0.47 2.71 0.97 2.2 0.5 3.01 0.88 1.19 0.54 1.76 1.38t0.57 1.93-0.62 2.05q-0.63 0.96-1.79 1.5-1.17 0.53-2.62 0.53-1.84 0-3.09-0.54t-1.97-1.62q-0.71-1.08-0.74-2.45zm12.84 4.37v-13.59h1.67v4.87q1.17-1.36 2.95-1.36 1.09 0 1.9 0.43 0.8 0.43 1.16 1.2 0.35 0.77 0.35 2.2v6.25h-1.67v-6.25q0-1.25-0.55-1.82t-1.53-0.57q-0.75 0-1.4 0.39-0.65 0.38-0.93 1.04-0.28 0.67-0.28 1.82v5.39h-1.67zm16.81-1.22q-0.94 0.8-1.8 1.12t-1.84 0.32q-1.61 0-2.49-0.79-0.87-0.79-0.87-2.02 0-0.74 0.33-1.33t0.86-0.95 1.2-0.55q0.5-0.14 1.48-0.25 2.04-0.25 2.99-0.58 0-0.34 0-0.43 0-1.02-0.47-1.44-0.64-0.56-1.91-0.56-1.17 0-1.73 0.4-0.56 0.41-0.83 1.47l-1.64-0.23q0.24-1.05 0.74-1.69 0.51-0.64 1.47-0.99 0.96-0.36 2.24-0.36 1.27 0 2.05 0.3t1.16 0.75q0.37 0.45 0.51 1.14 0.1 0.42 0.1 1.53v2.24q0 2.33 0.1 2.94 0.1 0.62 0.43 1.18h-1.75q-0.27-0.51-0.33-1.22zm-0.14-3.71q-0.91 0.35-2.74 0.62-1.03 0.14-1.45 0.33t-0.65 0.55q-0.24 0.35-0.24 0.79 0 0.67 0.51 1.12 0.51 0.44 1.48 0.44 0.96 0 1.71-0.42 0.75-0.43 1.11-1.15 0.27-0.58 0.27-1.68v-0.6zm10.47 4.93v-1.25q-0.94 1.47-2.75 1.47-1.17 0-2.17-0.65-0.99-0.65-1.53-1.81t-0.54-2.68q0-1.47 0.5-2.67 0.49-1.2 1.46-1.84 0.98-0.65 2.2-0.65 0.89 0 1.59 0.38 0.69 0.37 1.13 0.98v-4.87h1.66v13.59h-1.55zm-5.28-4.92q0 1.89 0.8 2.83 0.81 0.94 1.88 0.94 1.1 0 1.86-0.89 0.77-0.89 0.77-2.74 0-2.01-0.78-2.96-0.78-0.94-1.92-0.94-1.11 0-1.86 0.9-0.75 0.91-0.75 2.86zm8.64 0q0-2.73 1.53-4.06 1.27-1.1 3.09-1.1 2.03 0 3.32 1.34t1.29 3.68q0 1.91-0.57 2.99-0.57 1.09-1.65 1.69-1.09 0.6-2.39 0.6-2.06 0-3.34-1.33-1.28-1.32-1.28-3.81zm1.72 0q0 1.89 0.83 2.83 0.82 0.94 2.07 0.94t2.07-0.95q0.82-0.94 0.82-2.88 0-1.83-0.82-2.77-0.83-0.93-2.07-0.93-1.25 0-2.07 0.93-0.83 0.94-0.83 2.83zm11.11 4.92-3.02-9.86h1.72l1.56 5.69 0.6 2.13q0.03-0.16 0.5-2.04l1.57-5.78h1.72l1.47 5.72 0.49 1.89 0.57-1.9 1.69-5.71h1.63l-3.08 9.86h-1.74l-1.57-5.9-0.38-1.68-2 7.58h-1.73z"/>
<path fill="#000" d="m249.28 398.27v-13.6h2.72l3.22 9.63q0.44 1.34 0.64 2.01 0.23-0.75 0.73-2.18l3.25-9.46h2.42v13.6h-1.73v-11.39l-3.95 11.39h-1.63l-3.94-11.58v11.58h-1.73zm21.82-1.22q-0.94 0.79-1.79 1.11-0.86 0.32-1.85 0.32-1.61 0-2.48-0.78-0.88-0.79-0.88-2.03 0-0.73 0.33-1.33 0.33-0.59 0.86-0.95t1.2-0.55q0.5-0.14 1.49-0.25 2.03-0.25 2.98-0.57 0-0.35 0-0.44 0-1.02-0.47-1.44-0.64-0.56-1.9-0.56-1.18 0-1.74 0.4-0.56 0.41-0.83 1.47l-1.64-0.23q0.24-1.05 0.75-1.69 0.5-0.64 1.46-0.99 0.97-0.35 2.25-0.35 1.26 0 2.04 0.29 0.78 0.3 1.16 0.75 0.37 0.46 0.52 1.15 0.09 0.42 0.09 1.53v2.23q0 2.33 0.1 2.95 0.1 0.61 0.43 1.18h-1.75q-0.27-0.52-0.33-1.22zm-0.14-3.72q-0.9 0.36-2.73 0.62-1.03 0.14-1.46 0.33-0.42 0.19-0.65 0.55-0.24 0.36-0.24 0.8 0 0.67 0.51 1.11 0.51 0.45 1.48 0.45t1.72-0.43 1.11-1.15q0.26-0.58 0.26-1.67v-0.61zm3.41 2 1.66-0.27q0.14 1 0.77 1.53 0.63 0.52 1.77 0.52 1.16 0 1.71-0.47 0.56-0.47 0.56-1.09 0-0.57-0.49-0.89-0.34-0.22-1.7-0.57-1.84-0.46-2.55-0.8-0.72-0.34-1.08-0.94-0.37-0.6-0.37-1.32 0-0.65 0.3-1.22 0.31-0.56 0.83-0.93 0.39-0.29 1.06-0.49t1.44-0.2q1.17 0 2.04 0.33 0.88 0.34 1.29 0.91 0.42 0.57 0.57 1.52l-1.62 0.22q-0.11-0.75-0.65-1.18t-1.51-0.43q-1.16 0-1.64 0.39-0.48 0.38-0.48 0.88 0 0.33 0.2 0.59 0.2 0.27 0.64 0.44 0.25 0.09 1.47 0.44 1.76 0.47 2.47 0.76 0.7 0.3 1.1 0.88t0.4 1.44q0 0.82-0.49 1.57-0.48 0.74-1.4 1.14-0.93 0.39-2.08 0.39-1.92 0-2.93-0.79-1.01-0.8-1.29-2.36zm13.66 1.44 0.23 1.48q-0.7 0.14-1.27 0.14-0.9 0-1.4-0.29t-0.71-0.75q-0.2-0.46-0.2-1.97v-5.66h-1.23v-1.31h1.23v-2.44l1.66-1v3.44h1.69v1.31h-1.69v5.75q0 0.72 0.08 0.92 0.09 0.2 0.29 0.33 0.21 0.12 0.58 0.12 0.27 0 0.74-0.07zm8.27-1.68 1.72 0.22q-0.41 1.5-1.51 2.34-1.1 0.83-2.82 0.83-2.15 0-3.42-1.32-1.26-1.33-1.26-3.74 0-2.48 1.27-3.86 1.27-1.37 3.32-1.37 1.98 0 3.23 1.34 1.25 1.35 1.25 3.8 0 0.14-0.01 0.44h-7.35q0.1 1.62 0.93 2.48 0.82 0.86 2.06 0.86 0.9 0 1.55-0.48 0.65-0.47 1.04-1.54zm-5.48-2.7h5.5q-0.11-1.23-0.63-1.86-0.79-0.97-2.08-0.97-1.14 0-1.93 0.78-0.78 0.77-0.86 2.05zm9.09 5.88v-9.86h1.5v1.5q0.58-1.05 1.06-1.39 0.49-0.33 1.08-0.33 0.85 0 1.72 0.54l-0.58 1.55q-0.61-0.36-1.23-0.36-0.55 0-0.98 0.33t-0.61 0.91q-0.29 0.89-0.29 1.95v5.16h-1.67z"/>
<path stroke-linejoin="round" d="m233.04 263.1c0-5.73 4.65-10.38 10.38-10.38h68.46c2.76 0 5.4 1.09 7.35 3.04 1.94 1.95 3.04 4.59 3.04 7.34v41.54c0 5.73-4.65 10.38-10.39 10.38h-68.46c-5.73 0-10.38-4.65-10.38-10.38z" stroke="#000" stroke-linecap="butt" stroke-width="2" fill="#cfe2f3"/>
<path fill="#000" d="m254.39 289.15v-11.45h2.28l2.72 8.11q0.38 1.12 0.55 1.69 0.19-0.63 0.61-1.83l2.73-7.97h2.05v11.45h-1.47v-9.59l-3.33 9.59h-1.36l-3.31-9.75v9.75h-1.47zm18.61-1.03q-0.78 0.67-1.5 0.95-0.72 0.27-1.55 0.27-1.37 0-2.11-0.67-0.73-0.67-0.73-1.71 0-0.61 0.28-1.11 0.28-0.51 0.73-0.82 0.44-0.3 1.01-0.46 0.42-0.11 1.25-0.2 1.7-0.2 2.51-0.48 0-0.3 0-0.38 0-0.86-0.39-1.2-0.55-0.49-1.61-0.49-0.98 0-1.46 0.35-0.48 0.36-0.7 1.23l-1.37-0.19q0.19-0.87 0.62-1.42 0.43-0.54 1.24-0.83t1.87-0.29q1.07 0 1.73 0.25t0.98 0.62q0.31 0.38 0.43 0.96 0.08 0.35 0.08 1.29v1.88q0 1.97 0.09 2.48 0.08 0.52 0.35 1h-1.47q-0.22-0.44-0.28-1.03zm-0.11-3.14q-0.76 0.31-2.3 0.53-0.87 0.13-1.23 0.28-0.36 0.16-0.56 0.46-0.19 0.31-0.19 0.67 0 0.56 0.43 0.93 0.43 0.38 1.24 0.38t1.45-0.35q0.63-0.35 0.93-0.98 0.23-0.47 0.23-1.4v-0.52zm3.04 1.69 1.39-0.22q0.11 0.84 0.65 1.29 0.54 0.44 1.49 0.44 0.97 0 1.44-0.4 0.47-0.39 0.47-0.93 0-0.46-0.41-0.75-0.3-0.18-1.44-0.46-1.54-0.39-2.14-0.68-0.61-0.29-0.91-0.79-0.31-0.5-0.31-1.11 0-0.56 0.25-1.03t0.69-0.78q0.33-0.25 0.9-0.42 0.57-0.16 1.21-0.16 0.99 0 1.72 0.28t1.09 0.76q0.35 0.47 0.49 1.29l-1.38 0.18q-0.09-0.64-0.54-1-0.46-0.36-1.27-0.36-0.97 0-1.38 0.32-0.42 0.32-0.42 0.75 0 0.28 0.18 0.5 0.17 0.21 0.53 0.37 0.22 0.08 1.25 0.36 1.48 0.39 2.08 0.65 0.59 0.26 0.92 0.74 0.34 0.49 0.34 1.2t-0.41 1.32q-0.42 0.62-1.19 0.97-0.77 0.34-1.74 0.34-1.63 0-2.47-0.67-0.85-0.67-1.08-2zm11.63 1.22 0.2 1.25q-0.6 0.12-1.06 0.12-0.77 0-1.19-0.24t-0.6-0.64q-0.17-0.4-0.17-1.67v-4.76h-1.03v-1.1h1.03v-2.06l1.41-0.84v2.9h1.41v1.1h-1.41v4.84q0 0.61 0.07 0.78 0.07 0.18 0.24 0.28t0.49 0.1q0.23 0 0.61-0.06zm7.05-1.41 1.45 0.17q-0.34 1.28-1.27 1.99-0.93 0.7-2.37 0.7-1.83 0-2.89-1.13-1.06-1.12-1.06-3.14 0-2.09 1.08-3.25 1.08-1.15 2.79-1.15 1.66 0 2.72 1.13 1.05 1.13 1.05 3.18 0 0.12 0 0.37h-6.19q0.08 1.38 0.78 2.11 0.69 0.72 1.72 0.72 0.78 0 1.33-0.4 0.55-0.41 0.86-1.3zm-4.61-2.28h4.63q-0.1-1.05-0.54-1.56-0.67-0.82-1.73-0.82-0.97 0-1.63 0.65-0.67 0.65-0.73 1.73zm7.82 4.95v-8.3h1.27v1.25q0.48-0.87 0.89-1.15 0.4-0.28 0.9-0.28 0.71 0 1.44 0.45l-0.48 1.3q-0.52-0.3-1.03-0.3-0.46 0-0.83 0.27-0.36 0.28-0.52 0.78-0.23 0.75-0.23 1.64v4.34h-1.41z"/>
<path stroke-linejoin="round" d="m270.96 318.74 5.42-5.42 5.42 5.42h-2.71v26.77h2.71l-5.42 5.42-5.42-5.42h2.71v-26.77z" stroke="#000" stroke-linecap="butt" stroke-width="2" fill="#cfe2f3"/>
<path stroke-linejoin="round" d="m0 261.4c0-5.73 4.6488-10.38 10.383-10.38h55.013c2.754 0 5.395 1.09 7.342 3.04 1.948 1.95 3.042 4.59 3.042 7.34v41.54c0 5.73-4.649 10.38-10.384 10.38h-55.013c-5.7342 0-10.383-4.65-10.383-10.38z" stroke="#000" stroke-linecap="butt" stroke-width="2" fill="#cfe2f3"/>
<path fill="#000" d="m23.624 287.45 4.406-11.45h1.641l4.688 11.45h-1.735l-1.328-3.47h-4.797l-1.25 3.47h-1.625zm3.313-4.7h3.89l-1.203-3.17q-0.547-1.46-0.812-2.38-0.219 1.09-0.61 2.19l-1.265 3.36zm8.453 7.89v-11.49h1.281v1.08q0.453-0.64 1.023-0.95 0.571-0.31 1.383-0.31 1.063 0 1.875 0.54 0.813 0.55 1.227 1.54t0.414 2.18q0 1.28-0.461 2.3-0.461 1.01-1.328 1.56t-1.836 0.55q-0.703 0-1.258-0.3t-0.914-0.75v4.05h-1.406zm1.265-7.3q0 1.61 0.649 2.38 0.648 0.76 1.57 0.76 0.938 0 1.61-0.8 0.671-0.79 0.671-2.45 0-1.59-0.656-2.38t-1.562-0.79q-0.891 0-1.586 0.84-0.696 0.85-0.696 2.44zm7.633 7.3v-11.49h1.281v1.08q0.454-0.64 1.024-0.95t1.383-0.31q1.062 0 1.875 0.54 0.812 0.55 1.226 1.54t0.414 2.18q0 1.28-0.461 2.3-0.461 1.01-1.328 1.56t-1.836 0.55q-0.703 0-1.257-0.3-0.555-0.3-0.915-0.75v4.05h-1.406zm1.266-7.3q0 1.61 0.648 2.38 0.649 0.76 1.571 0.76 0.937 0 1.609-0.8 0.672-0.79 0.672-2.45 0-1.59-0.656-2.38-0.657-0.79-1.563-0.79-0.891 0-1.586 0.84-0.695 0.85-0.695 2.44z"/>
</g>
<g transform="translate(12,-2)" stroke="#000" stroke-linecap="butt" stroke-width="2">
<path stroke-linejoin="round" d="m473.73 130.11v111.25" stroke-dasharray="16, 6, 2, 6"/>
<path fill="#000" d="m477.03 130.11-3.3-9.07-3.3 9.07z"/>
<path fill="#000" d="m470.43 241.36 3.3 9.08 3.3-9.08z"/>
<path stroke-linejoin="round" d="m473.86 327.66 1.23 119.17" stroke-dasharray="16, 6, 2, 6"/>
<path fill="#000" d="m477.16 327.63-3.4-9.04-3.21 9.11z"/>
<path fill="#000" d="m471.79 446.87 3.4 9.04 3.21-9.11z"/>
</g>
<g transform="translate(12,-2)">
<path stroke-linejoin="round" d="m107.19 196.75 6.68-15.11 2.11 5.45 238.01-91.988-2.11-5.449 15.12 6.685-6.68 15.112-2.11-5.45-238.01 91.98 2.11 5.45z" stroke="#000" stroke-linecap="butt" stroke-width="2" fill="#cfe2f3"/>
<path fill="#000" d="m161.54 180.46-3.36-8.69 2.99-1.15q1.02-0.39 1.59-0.47 0.83-0.11 1.53 0.13 0.9 0.31 1.6 1.08 0.69 0.77 1.14 1.94 0.38 0.99 0.45 1.84 0.06 0.86-0.11 1.49-0.18 0.64-0.49 1.1-0.32 0.45-0.87 0.83t-1.33 0.69l-3.14 1.21zm0.76-1.47 1.85-0.71q0.86-0.33 1.29-0.68 0.42-0.35 0.6-0.76 0.25-0.56 0.21-1.34t-0.42-1.76q-0.53-1.37-1.26-1.92-0.72-0.56-1.46-0.56-0.54 0.01-1.56 0.4l-1.82 0.7 2.57 6.63zm5.21-9.4-0.48-1.23 1.06-0.42 0.48 1.24-1.06 0.41zm2.88 7.45-2.43-6.28 1.06-0.41 2.43 6.28-1.06 0.41zm2.75-1.06-2.43-6.28 0.96-0.37 0.36 0.94q0.11-0.81 0.34-1.14t0.6-0.47q0.54-0.21 1.22-0.09l0.02 1.13q-0.49-0.08-0.86 0.07-0.35 0.13-0.56 0.45-0.2 0.32-0.17 0.75 0.05 0.63 0.31 1.3l1.27 3.3-1.06 0.41zm7.67-5.3 1.16-0.29q0.11 1.08-0.39 1.88-0.5 0.81-1.59 1.23-1.39 0.53-2.53-0.01t-1.73-2.07q-0.61-1.58-0.13-2.78 0.49-1.19 1.78-1.69 1.27-0.49 2.4 0.06t1.72 2.1q0.04 0.1 0.12 0.29l-4.7 1.81q0.46 1.02 1.2 1.37t1.53 0.04q0.6-0.23 0.89-0.7t0.27-1.24zm-4.17-0.36 3.52-1.36q-0.39-0.77-0.88-1.04-0.74-0.41-1.54-0.1-0.75 0.28-1.05 0.96-0.31 0.68-0.05 1.54zm10.77-2.51 1.1-0.27q0.26 1.15-0.21 2.04-0.48 0.89-1.5 1.29-1.3 0.5-2.41-0.05-1.1-0.54-1.71-2.11-0.4-1.02-0.36-1.92 0.04-0.89 0.58-1.54 0.54-0.64 1.35-0.96 1.02-0.39 1.88-0.13 0.86 0.27 1.4 1.15l-0.98 0.56q-0.38-0.57-0.88-0.75t-1.03 0.03q-0.81 0.31-1.09 1.08t0.21 2.02q0.49 1.27 1.19 1.66 0.71 0.39 1.5 0.09 0.62-0.25 0.9-0.8 0.27-0.54 0.06-1.39zm4.98-0.36 0.5 0.88q-0.41 0.27-0.76 0.41-0.58 0.22-0.98 0.16-0.39-0.07-0.64-0.32-0.24-0.24-0.61-1.19l-1.4-3.63-0.78 0.3-0.31-0.82 0.77-0.3-0.6-1.55 0.81-1.06 0.85 2.2 1.08-0.41 0.32 0.81-1.08 0.42 1.43 3.69q0.17 0.45 0.28 0.56 0.11 0.1 0.26 0.13 0.15 0.02 0.39-0.07 0.19-0.07 0.47-0.21zm4.12-0.51-0.02-9.97 1.22-0.47 6.92 7.31-1.31 0.5-2.02-2.23-3.63 1.4 0.05 3-1.21 0.46zm1.13-4.54 2.94-1.13-1.85-2.05q-0.83-0.94-1.3-1.56 0.16 0.89 0.17 1.84l0.04 2.9zm11.19-2.86 1.1-0.28q0.26 1.16-0.22 2.05-0.48 0.88-1.5 1.28-1.29 0.5-2.4-0.04-1.11-0.55-1.72-2.12-0.39-1.02-0.35-1.92 0.04-0.89 0.58-1.53 0.53-0.65 1.35-0.96 1.02-0.4 1.88-0.13 0.85 0.26 1.39 1.14l-0.97 0.56q-0.39-0.57-0.88-0.75-0.5-0.17-1.04 0.03-0.8 0.31-1.08 1.08t0.21 2.03 1.19 1.65 1.49 0.09q0.63-0.24 0.9-0.79t0.07-1.39zm6.21-2.4 1.1-0.28q0.26 1.16-0.21 2.04-0.48 0.89-1.5 1.29-1.3 0.5-2.4-0.05-1.11-0.54-1.72-2.11-0.4-1.02-0.36-1.92 0.04-0.89 0.58-1.54 0.54-0.64 1.36-0.96 1.02-0.39 1.87-0.13 0.86 0.27 1.4 1.15l-0.97 0.56q-0.39-0.57-0.89-0.75-0.49-0.18-1.03 0.03-0.8 0.31-1.08 1.08t0.2 2.02q0.49 1.27 1.2 1.66 0.7 0.39 1.49 0.09 0.62-0.24 0.9-0.79 0.27-0.55 0.06-1.39zm6.53-2.21 1.16-0.3q0.11 1.08-0.39 1.89-0.5 0.8-1.59 1.22-1.39 0.54-2.53 0-1.13-0.54-1.73-2.07-0.61-1.59-0.13-2.78 0.49-1.19 1.79-1.69 1.26-0.49 2.39 0.06t1.73 2.1q0.04 0.1 0.11 0.29l-4.69 1.81q0.45 1.01 1.19 1.36t1.53 0.05q0.6-0.23 0.89-0.7 0.3-0.48 0.27-1.24zm-4.16-0.37 3.51-1.35q-0.39-0.78-0.87-1.04-0.75-0.42-1.55-0.11-0.74 0.29-1.05 0.97t-0.04 1.53zm6.41-0.33 0.98-0.57q0.33 0.6 0.88 0.78 0.54 0.19 1.27-0.1 0.72-0.28 0.97-0.71 0.24-0.44 0.08-0.85-0.14-0.36-0.54-0.44-0.28-0.06-1.24 0.06-1.28 0.15-1.81 0.11-0.54-0.04-0.92-0.33t-0.56-0.76q-0.16-0.42-0.11-0.85t0.3-0.79q0.17-0.29 0.55-0.58t0.88-0.48q0.73-0.28 1.37-0.29 0.64 0 1.05 0.26 0.42 0.26 0.75 0.83l-0.99 0.55q-0.26-0.47-0.7-0.61t-1.07 0.11q-0.73 0.28-0.96 0.64-0.22 0.37-0.09 0.7 0.08 0.21 0.27 0.32 0.2 0.12 0.52 0.13 0.18 0 1.05-0.1 1.25-0.14 1.77-0.12t0.92 0.29 0.61 0.81 0.07 1.13q-0.13 0.59-0.61 1.07-0.48 0.49-1.23 0.78-1.22 0.47-2.06 0.21t-1.4-1.2zm6.21-2.4 0.99-0.57q0.33 0.59 0.87 0.78 0.54 0.18 1.27-0.1t0.97-0.72q0.24-0.43 0.08-0.84-0.14-0.36-0.54-0.45-0.27-0.06-1.23 0.06-1.28 0.16-1.82 0.12-0.53-0.05-0.91-0.33-0.38-0.29-0.56-0.76-0.17-0.42-0.11-0.85 0.05-0.43 0.29-0.79 0.18-0.29 0.56-0.58t0.88-0.48q0.72-0.28 1.37-0.29 0.64 0 1.05 0.26t0.75 0.83l-0.99 0.55q-0.27-0.47-0.71-0.61t-1.06 0.1q-0.73 0.29-0.96 0.65t-0.1 0.7q0.08 0.2 0.27 0.31 0.2 0.13 0.53 0.14 0.18-0.01 1.04-0.11 1.26-0.13 1.78-0.11t0.91 0.29q0.4 0.27 0.61 0.81t0.08 1.13q-0.13 0.58-0.62 1.07-0.48 0.49-1.22 0.78-1.22 0.47-2.06 0.21t-1.41-1.2zm12.79-3.87 0.51 0.87q-0.42 0.28-0.77 0.42-0.58 0.22-0.97 0.16-0.4-0.07-0.64-0.32-0.25-0.25-0.62-1.19l-1.4-3.63-0.77 0.3-0.32-0.82 0.77-0.3-0.6-1.56 0.81-1.05 0.86 2.2 1.07-0.41 0.32 0.81-1.08 0.42 1.43 3.68q0.17 0.46 0.28 0.56 0.11 0.11 0.26 0.14 0.16 0.02 0.39-0.07 0.19-0.07 0.47-0.21zm-0.12-2.48q-0.68-1.75-0.04-2.95 0.54-1.02 1.71-1.47 1.3-0.5 2.45 0.03 1.15 0.52 1.73 2.02 0.47 1.21 0.37 2.05-0.09 0.84-0.64 1.5t-1.36 0.97q-1.33 0.51-2.47-0.02-1.13-0.53-1.75-2.13zm1.09-0.43q0.47 1.21 1.23 1.62 0.76 0.4 1.56 0.09 0.78-0.31 1.08-1.12t-0.18-2.05q-0.45-1.16-1.22-1.56-0.76-0.4-1.55-0.1-0.8 0.31-1.1 1.11-0.29 0.8 0.18 2.01zm12.85-2.43 0.51 0.87q-0.41 0.28-0.76 0.41-0.59 0.23-0.98 0.16-0.39-0.06-0.64-0.31t-0.62-1.19l-1.4-3.63-0.77 0.3-0.32-0.82 0.77-0.3-0.6-1.56 0.82-1.05 0.85 2.2 1.08-0.42 0.31 0.82-1.08 0.42 1.43 3.68q0.18 0.45 0.29 0.56 0.1 0.11 0.26 0.14 0.15 0.02 0.38-0.07 0.19-0.07 0.47-0.21zm1.49 0.51-3.36-8.68 1.06-0.42 1.21 3.12q0.41-1.14 1.55-1.58 0.7-0.27 1.32-0.2 0.62 0.08 1.03 0.48 0.4 0.39 0.77 1.33l1.54 3.97-1.07 0.41-1.54-3.97q-0.31-0.81-0.79-1.04-0.49-0.23-1.13 0.02-0.46 0.18-0.79 0.58-0.33 0.41-0.34 0.9-0.02 0.49 0.27 1.23l1.33 3.44-1.06 0.41zm10.43-6.36 1.16-0.3q0.11 1.08-0.39 1.89-0.5 0.8-1.59 1.22-1.39 0.54-2.52 0-1.14-0.54-1.74-2.07-0.61-1.59-0.13-2.78 0.49-1.19 1.79-1.69 1.26-0.49 2.39 0.06t1.73 2.1q0.04 0.1 0.11 0.29l-4.69 1.81q0.46 1.01 1.19 1.36 0.74 0.35 1.53 0.05 0.6-0.23 0.89-0.7 0.3-0.48 0.27-1.24zm-4.16-0.37 3.51-1.35q-0.39-0.78-0.87-1.04-0.75-0.42-1.55-0.11-0.74 0.29-1.05 0.97t-0.04 1.53zm16.16-5.44 1.26-0.15q0.19 1.55-0.47 2.66-0.65 1.1-2 1.63-1.4 0.54-2.51 0.31-1.1-0.23-1.98-1.13-0.88-0.91-1.36-2.15-0.52-1.36-0.39-2.57 0.13-1.22 0.89-2.11 0.75-0.89 1.9-1.34 1.3-0.5 2.44-0.18 1.15 0.32 1.97 1.39l-1.04 0.7q-0.67-0.82-1.41-1.03-0.73-0.21-1.61 0.12-1 0.39-1.49 1.13-0.48 0.74-0.44 1.65 0.04 0.9 0.37 1.76 0.43 1.11 1.07 1.82 0.65 0.7 1.48 0.85 0.84 0.15 1.64-0.16 0.96-0.38 1.42-1.2 0.45-0.82 0.26-2zm3.83 2.02-3.36-8.68 1.06-0.41 1.21 3.11q0.41-1.14 1.55-1.58 0.7-0.27 1.32-0.2 0.62 0.08 1.03 0.48 0.4 0.39 0.77 1.33l1.54 3.97-1.07 0.42-1.54-3.98q-0.31-0.8-0.79-1.04-0.49-0.23-1.13 0.02-0.46 0.18-0.79 0.58-0.33 0.41-0.34 0.9-0.02 0.49 0.27 1.23l1.33 3.44-1.06 0.41zm11.04-4.27-0.36-0.91q-0.33 1.35-1.58 1.83-0.55 0.22-1.13 0.19-0.57-0.03-0.93-0.26t-0.62-0.67q-0.19-0.27-0.46-0.96l-1.51-3.89 1.07-0.41 1.35 3.48q0.32 0.83 0.5 1.1 0.27 0.38 0.68 0.49 0.42 0.12 0.9-0.06 0.48-0.19 0.81-0.6 0.32-0.41 0.33-0.9t-0.3-1.29l-1.3-3.37 1.06-0.41 2.44 6.28-0.95 0.36zm2.79-1.07-2.43-6.28 0.96-0.37 0.34 0.88q0.29-1.3 1.6-1.8 0.57-0.22 1.12-0.2t0.92 0.25q0.37 0.24 0.64 0.67 0.17 0.27 0.45 1.01l1.5 3.87-1.06 0.41-1.48-3.82q-0.26-0.66-0.5-0.93-0.25-0.27-0.64-0.35-0.39-0.07-0.81 0.09-0.69 0.27-1.02 0.89t0.14 1.83l1.33 3.44-1.06 0.41zm6.91-2.68-3.36-8.68 1.06-0.41 1.92 4.95 1.54-3.52 1.38-0.54-1.5 3.26 4.18 2.93-1.31 0.51-3.33-2.42-0.48 1.02 0.97 2.49-1.07 0.41zm5.07-4.11 0.99-0.57q0.33 0.59 0.87 0.78 0.54 0.18 1.27-0.1 0.72-0.28 0.97-0.72 0.24-0.43 0.08-0.84-0.14-0.37-0.54-0.45-0.28-0.06-1.24 0.06-1.27 0.16-1.81 0.12-0.54-0.05-0.92-0.34-0.38-0.28-0.56-0.75-0.16-0.42-0.11-0.85t0.3-0.8q0.17-0.28 0.55-0.57t0.88-0.48q0.73-0.28 1.37-0.29t1.06 0.25q0.41 0.26 0.74 0.84l-0.99 0.55q-0.26-0.47-0.7-0.61t-1.07 0.1q-0.73 0.28-0.95 0.65-0.23 0.36-0.1 0.7 0.08 0.2 0.27 0.31 0.2 0.13 0.52 0.14 0.18-0.01 1.05-0.11 1.25-0.13 1.77-0.11 0.52 0.01 0.92 0.29 0.4 0.27 0.61 0.81t0.07 1.13q-0.13 0.58-0.61 1.07t-1.23 0.78q-1.22 0.47-2.06 0.21-0.84-0.27-1.4-1.2z"/>
<path stroke-linejoin="round" d="m80.387 281.85 14.567-14.57v7.28h134.16v14.57h-134.16l0.004 7.28z" stroke="#000" stroke-linecap="butt" stroke-width="2" fill="#cfe2f3"/>
<path fill="#000" d="m116.02 282.98 1.24 0.31q-0.39 1.52-1.4 2.32-1.01 0.79-2.46 0.79-1.5 0-2.45-0.61-0.94-0.61-1.44-1.77-0.49-1.16-0.49-2.49 0-1.46 0.56-2.54 0.57-1.09 1.59-1.65t2.26-0.56q1.39 0 2.34 0.71t1.33 2.01l-1.22 0.28q-0.33-1.02-0.94-1.48t-1.54-0.46q-1.08 0-1.8 0.52-0.72 0.51-1.01 1.37t-0.29 1.78q0 1.19 0.35 2.08 0.34 0.89 1.07 1.33 0.72 0.44 1.58 0.44 1.03 0 1.75-0.61 0.72-0.6 0.97-1.77zm2.85 3.27v-9.32h1.14v3.35q0.79-0.92 2.01-0.92 0.75 0 1.31 0.29 0.55 0.3 0.79 0.81 0.23 0.52 0.23 1.52v4.27h-1.14v-4.27q0-0.86-0.37-1.25t-1.05-0.39q-0.5 0-0.96 0.26-0.45 0.26-0.64 0.71-0.18 0.45-0.18 1.25v3.69h-1.14zm11.83 0v-0.99q-0.8 1.14-2.14 1.14-0.59 0-1.12-0.23-0.52-0.24-0.77-0.58t-0.35-0.84q-0.07-0.33-0.07-1.07v-4.17h1.14v3.74q0 0.89 0.08 1.2 0.1 0.45 0.45 0.71 0.34 0.26 0.86 0.26 0.51 0 0.97-0.27 0.45-0.26 0.64-0.72 0.18-0.45 0.18-1.31v-3.61h1.15v6.74h-1.02zm2.99 0v-6.74h1.03v0.95q0.74-1.1 2.14-1.1 0.61 0 1.12 0.21 0.51 0.22 0.77 0.57 0.25 0.36 0.35 0.86 0.06 0.31 0.06 1.11v4.14h-1.14v-4.1q0-0.7-0.13-1.04-0.14-0.35-0.47-0.56-0.34-0.21-0.79-0.21-0.74 0-1.27 0.46t-0.53 1.76v3.69h-1.14zm7.41 0v-9.32h1.14v5.32l2.71-2.74h1.48l-2.58 2.5 2.85 4.24h-1.41l-2.23-3.46-0.82 0.78v2.68h-1.14zm10.48 0v-9.32h1.84l2.21 6.6q0.31 0.92 0.45 1.37 0.16-0.5 0.48-1.48l2.24-6.49h1.65v9.32h-1.18v-7.79l-2.71 7.79h-1.11l-2.68-7.93v7.93h-1.19zm15.38-0.83q-0.62 0.53-1.21 0.76-0.58 0.22-1.26 0.22-1.12 0-1.71-0.54-0.6-0.55-0.6-1.4 0-0.48 0.23-0.89 0.22-0.42 0.59-0.67t0.82-0.37q0.33-0.08 1.02-0.17 1.37-0.16 2.03-0.4 0.01-0.23 0.01-0.29 0-0.71-0.32-0.99-0.44-0.39-1.3-0.39-0.81 0-1.2 0.28-0.38 0.29-0.57 1l-1.11-0.14q0.15-0.72 0.5-1.16 0.35-0.45 1.01-0.68 0.67-0.23 1.53-0.23 0.87 0 1.41 0.2t0.79 0.51q0.25 0.3 0.36 0.77 0.05 0.3 0.05 1.06v1.52q0 1.59 0.07 2.01 0.08 0.43 0.28 0.82h-1.18q-0.17-0.36-0.24-0.83zm-0.09-2.56q-0.63 0.26-1.86 0.43-0.7 0.11-1 0.24-0.3 0.12-0.45 0.36-0.16 0.25-0.16 0.54 0 0.46 0.34 0.76 0.35 0.31 1.02 0.31 0.66 0 1.17-0.29 0.52-0.29 0.77-0.79 0.17-0.38 0.17-1.14v-0.42zm3.11 5.96v-9.31h1.04v0.88q0.37-0.52 0.83-0.78 0.46-0.25 1.13-0.25 0.86 0 1.52 0.44 0.66 0.45 0.99 1.25 0.34 0.81 0.34 1.77 0 1.04-0.37 1.86-0.37 0.83-1.08 1.28-0.71 0.44-1.49 0.44-0.56 0-1.01-0.24-0.46-0.24-0.75-0.62v3.28h-1.15zm1.04-5.9q0 1.29 0.53 1.92 0.53 0.62 1.26 0.62 0.77 0 1.32-0.64 0.54-0.65 0.54-2 0-1.29-0.53-1.93t-1.26-0.64q-0.74 0-1.3 0.68t-0.56 1.99zm6.38 5.9v-9.31h1.03v0.88q0.37-0.52 0.83-0.78 0.47-0.25 1.14-0.25 0.86 0 1.51 0.44 0.66 0.45 1 1.25 0.33 0.81 0.33 1.77 0 1.04-0.37 1.86-0.36 0.83-1.07 1.28-0.72 0.44-1.5 0.44-0.56 0-1.01-0.24-0.46-0.24-0.75-0.62v3.28h-1.14zm1.03-5.9q0 1.29 0.53 1.92 0.53 0.62 1.27 0.62 0.76 0 1.31-0.64 0.54-0.65 0.54-2 0-1.29-0.53-1.93t-1.26-0.64q-0.74 0-1.3 0.68t-0.56 1.99zm6.38-4.66v-1.33h1.14v1.33h-1.14zm0 7.99v-6.74h1.14v6.74h-1.14zm2.96 0v-6.74h1.03v0.95q0.74-1.1 2.14-1.1 0.61 0 1.12 0.21 0.51 0.22 0.77 0.57 0.25 0.36 0.35 0.86 0.06 0.31 0.06 1.11v4.14h-1.14v-4.1q0-0.7-0.13-1.04-0.14-0.35-0.47-0.56-0.34-0.21-0.79-0.21-0.74 0-1.27 0.46t-0.53 1.76v3.69h-1.14zm7.19 0.56 1.13 0.15q0.06 0.52 0.37 0.75 0.44 0.33 1.18 0.33 0.78 0 1.22-0.32 0.43-0.32 0.57-0.9 0.1-0.34 0.1-1.45-0.75 0.88-1.88 0.88-1.39 0-2.15-1-0.75-1-0.75-2.41 0-0.97 0.35-1.78t1.01-1.26q0.65-0.44 1.56-0.44 1.19 0 1.97 0.96v-0.81h1.04v5.81q0 1.58-0.32 2.24-0.32 0.65-1.01 1.04-0.7 0.38-1.71 0.38-1.21 0-1.95-0.54t-0.73-1.63zm0.96-4.05q0 1.31 0.52 1.92t1.32 0.61 1.33-0.6 0.53-1.9q0-1.23-0.55-1.86-0.54-0.64-1.32-0.64-0.77 0-1.3 0.63-0.53 0.62-0.53 1.84zm6.22 1.47 1.13-0.17q0.09 0.67 0.53 1.04 0.44 0.36 1.22 0.36t1.16-0.32 0.38-0.75q0-0.39-0.34-0.61-0.23-0.16-1.17-0.39-1.25-0.32-1.74-0.55-0.48-0.23-0.73-0.64t-0.25-0.91q0-0.45 0.2-0.83 0.21-0.39 0.57-0.64 0.26-0.2 0.72-0.33t0.99-0.13q0.79 0 1.39 0.22 0.6 0.23 0.89 0.62t0.4 1.05l-1.13 0.15q-0.08-0.53-0.44-0.82t-1.03-0.29q-0.78 0-1.12 0.26-0.35 0.26-0.35 0.62 0 0.22 0.14 0.39 0.15 0.19 0.44 0.31 0.17 0.06 1.02 0.28 1.22 0.33 1.69 0.53 0.48 0.21 0.75 0.61 0.28 0.39 0.28 0.97t-0.34 1.08-0.96 0.78q-0.63 0.28-1.42 0.28-1.31 0-2-0.54-0.69-0.55-0.88-1.63z"/>
<path fill="#000" d="m138.91 384.22 3.87-8.47 2.91 1.33q1 0.46 1.45 0.82 0.66 0.51 0.97 1.19 0.42 0.86 0.35 1.89t-0.59 2.17q-0.45 0.97-1.01 1.61-0.57 0.64-1.15 0.96t-1.13 0.41q-0.54 0.09-1.2-0.03-0.65-0.13-1.42-0.48l-3.05-1.4zm1.57-0.48 1.81 0.82q0.84 0.39 1.38 0.45 0.55 0.06 0.96-0.09 0.58-0.22 1.11-0.79 0.53-0.58 0.97-1.53 0.61-1.33 0.5-2.24t-0.62-1.44q-0.38-0.38-1.37-0.83l-1.78-0.82-2.96 6.47zm10.37-2.83 0.55-1.21 1.04 0.48-0.55 1.21-1.04-0.48zm-3.32 7.26 2.8-6.12 1.04 0.47-2.81 6.13-1.03-0.48zm2.67 1.23 2.81-6.13 0.94 0.43-0.43 0.93q0.66-0.49 1.06-0.56 0.4-0.06 0.75 0.1 0.53 0.24 0.92 0.81l-0.8 0.81q-0.28-0.41-0.65-0.58-0.34-0.15-0.71-0.07t-0.66 0.39q-0.42 0.48-0.72 1.13l-1.47 3.21-1.04-0.47zm9.15 1.8 1.02 0.63q-0.69 0.83-1.62 1.03t-1.99-0.28q-1.35-0.62-1.76-1.82-0.41-1.19 0.28-2.68 0.71-1.55 1.9-2.03 1.19-0.49 2.46 0.09 1.23 0.57 1.62 1.76 0.39 1.2-0.3 2.7-0.04 0.1-0.13 0.29l-4.57-2.1q-0.41 1.03-0.14 1.81 0.26 0.77 1.03 1.12 0.58 0.27 1.13 0.15 0.54-0.12 1.07-0.67zm-2.64-3.24 3.42 1.57q0.29-0.81 0.13-1.35-0.22-0.82-1-1.18-0.73-0.33-1.43-0.08-0.7 0.26-1.12 1.04zm9.3 5.97 0.96 0.6q-0.64 0.99-1.61 1.27t-1.96-0.18q-1.27-0.58-1.65-1.75t0.32-2.71q0.46-0.99 1.12-1.59 0.67-0.59 1.51-0.66 0.83-0.06 1.63 0.3 0.99 0.46 1.4 1.26 0.41 0.79 0.16 1.8l-1.08-0.31q0.14-0.68-0.08-1.15-0.22-0.48-0.75-0.72-0.78-0.36-1.53-0.03-0.74 0.34-1.3 1.56-0.57 1.24-0.36 2.01 0.22 0.78 0.98 1.13 0.61 0.28 1.2 0.09 0.58-0.18 1.04-0.92zm3.73 3.31-0.27 0.98q-0.49-0.1-0.83-0.26-0.57-0.26-0.79-0.59-0.23-0.33-0.23-0.68 0.01-0.35 0.43-1.27l1.62-3.54-0.75-0.34 0.36-0.8 0.76 0.35 0.69-1.52 1.32-0.15-0.98 2.14 1.05 0.48-0.36 0.8-1.05-0.48-1.65 3.59q-0.2 0.44-0.2 0.6 0 0.15 0.09 0.28 0.08 0.12 0.31 0.23 0.19 0.08 0.48 0.18zm3.24 2.61 7.13-6.98 1.2 0.55-0.42 10.06-1.27-0.59 0.19-3.01-3.54-1.62-2.11 2.13-1.18-0.54zm4.04-2.36 2.87 1.31 0.18-2.75q0.09-1.25 0.2-2.02-0.53 0.74-1.2 1.41l-2.05 2.05zm9.86 6.01 0.96 0.6q-0.64 1-1.61 1.27-0.97 0.28-1.96-0.18-1.27-0.58-1.65-1.75t0.32-2.7q0.45-1 1.12-1.6 0.67-0.59 1.51-0.65 0.83-0.07 1.63 0.3 0.99 0.45 1.4 1.25t0.16 1.8l-1.08-0.31q0.13-0.67-0.08-1.15-0.22-0.48-0.75-0.72-0.78-0.36-1.53-0.02-0.74 0.33-1.3 1.56-0.57 1.23-0.36 2.01 0.21 0.77 0.98 1.13 0.61 0.28 1.2 0.09 0.58-0.19 1.04-0.93zm6.05 2.78 0.97 0.6q-0.65 0.99-1.61 1.27-0.97 0.28-1.97-0.18-1.26-0.58-1.64-1.75-0.39-1.17 0.32-2.71 0.45-0.99 1.12-1.59 0.67-0.59 1.5-0.66 0.84-0.06 1.64 0.31 0.99 0.45 1.4 1.25t0.15 1.8l-1.08-0.31q0.14-0.67-0.08-1.15t-0.74-0.72q-0.78-0.36-1.53-0.02-0.75 0.33-1.31 1.55-0.56 1.24-0.35 2.02 0.21 0.77 0.98 1.12 0.61 0.28 1.19 0.1 0.59-0.19 1.04-0.93zm6.14 3.14 1.02 0.63q-0.69 0.83-1.62 1.03-0.93 0.21-1.99-0.28-1.35-0.62-1.76-1.81-0.41-1.2 0.28-2.69 0.71-1.55 1.9-2.03 1.19-0.49 2.46 0.09 1.23 0.57 1.62 1.76 0.39 1.2-0.3 2.7-0.04 0.1-0.13 0.29l-4.57-2.1q-0.41 1.03-0.14 1.81 0.26 0.77 1.03 1.12 0.58 0.27 1.13 0.15 0.54-0.12 1.07-0.67zm-2.64-3.24 3.42 1.57q0.29-0.81 0.13-1.34-0.22-0.83-1-1.19-0.72-0.33-1.43-0.08-0.7 0.26-1.12 1.04zm4.71 4.36 1.09 0.32q-0.19 0.65 0.05 1.16 0.25 0.52 0.96 0.85 0.71 0.32 1.19 0.19t0.66-0.53q0.16-0.35-0.06-0.7-0.14-0.24-0.9-0.84-1.01-0.81-1.35-1.22-0.34-0.42-0.4-0.89t0.15-0.93q0.19-0.41 0.53-0.67 0.35-0.27 0.78-0.34 0.32-0.08 0.8-0.01 0.47 0.07 0.96 0.3 0.71 0.32 1.16 0.78t0.55 0.93q0.1 0.48-0.07 1.12l-1.09-0.33q0.15-0.51-0.06-0.93-0.2-0.41-0.81-0.69-0.71-0.32-1.13-0.23t-0.57 0.41q-0.09 0.2-0.04 0.42 0.05 0.23 0.27 0.46 0.13 0.13 0.81 0.68 0.97 0.81 1.32 1.19 0.34 0.39 0.43 0.86 0.08 0.48-0.16 1.01-0.24 0.52-0.75 0.84-0.52 0.31-1.2 0.31-0.69-0.01-1.41-0.34-1.2-0.55-1.59-1.33-0.4-0.79-0.12-1.85zm6.06 2.78 1.09 0.32q-0.19 0.65 0.05 1.16 0.24 0.52 0.95 0.84 0.71 0.33 1.2 0.2 0.48-0.13 0.66-0.53 0.16-0.36-0.06-0.7-0.15-0.24-0.9-0.84-1.01-0.81-1.35-1.22-0.34-0.42-0.4-0.89t0.15-0.93q0.19-0.41 0.53-0.67 0.35-0.27 0.78-0.35 0.32-0.07 0.8 0 0.47 0.07 0.95 0.29 0.71 0.33 1.17 0.79 0.45 0.45 0.55 0.93t-0.08 1.12l-1.08-0.33q0.15-0.51-0.06-0.93-0.21-0.41-0.82-0.69-0.71-0.33-1.13-0.23-0.42 0.09-0.57 0.41-0.09 0.2-0.03 0.42 0.05 0.23 0.27 0.46 0.13 0.13 0.8 0.68 0.97 0.81 1.32 1.19 0.35 0.39 0.43 0.86 0.09 0.48-0.15 1-0.24 0.53-0.76 0.84-0.51 0.32-1.2 0.31-0.68 0-1.41-0.33-1.19-0.55-1.59-1.33-0.39-0.79-0.11-1.85zm11.69 6.47-0.28 0.97q-0.48-0.1-0.82-0.26-0.57-0.26-0.8-0.59-0.23-0.32-0.22-0.67 0-0.35 0.43-1.28l1.61-3.54-0.75-0.34 0.37-0.8 0.75 0.35 0.69-1.52 1.33-0.15-0.98 2.14 1.05 0.49-0.37 0.79-1.05-0.48-1.64 3.59q-0.21 0.45-0.21 0.6t0.09 0.28 0.31 0.23q0.19 0.08 0.49 0.19zm1.69-1.82q0.78-1.71 2.09-2.09 1.1-0.31 2.24 0.21 1.26 0.58 1.69 1.77 0.42 1.19-0.25 2.65-0.53 1.18-1.2 1.7t-1.52 0.58q-0.86 0.07-1.65-0.3-1.3-0.59-1.71-1.77-0.41-1.19 0.31-2.75zm1.06 0.49q-0.54 1.17-0.29 2 0.24 0.82 1.02 1.18 0.76 0.35 1.55 0t1.34-1.56q0.52-1.13 0.28-1.96-0.25-0.83-1.02-1.18-0.78-0.36-1.56-0.01t-1.32 1.53zm10.72 7.51-0.28 0.97q-0.48-0.1-0.83-0.26-0.56-0.26-0.79-0.59t-0.22-0.68q0-0.35 0.42-1.27l1.62-3.54-0.75-0.34 0.37-0.8 0.75 0.35 0.69-1.52 1.33-0.15-0.99 2.14 1.06 0.49-0.37 0.79-1.05-0.48-1.65 3.59q-0.2 0.44-0.2 0.6 0 0.15 0.09 0.28 0.09 0.12 0.31 0.23 0.19 0.08 0.49 0.19zm0.67 1.42 3.87-8.47 1.04 0.48-1.39 3.04q1.11-0.51 2.21 0 0.68 0.31 1.07 0.81 0.38 0.51 0.37 1.07 0 0.57-0.41 1.48l-1.78 3.88-1.04-0.48 1.78-3.88q0.36-0.78 0.19-1.29-0.18-0.51-0.8-0.79-0.45-0.21-0.97-0.16-0.52 0.04-0.88 0.37-0.36 0.34-0.69 1.06l-1.54 3.36-1.03-0.48zm11.83 3.04 1.02 0.62q-0.69 0.84-1.62 1.04t-1.99-0.29q-1.35-0.62-1.76-1.81t0.28-2.68q0.71-1.55 1.9-2.04 1.19-0.48 2.46 0.1 1.23 0.57 1.62 1.76t-0.3 2.7q-0.04 0.1-0.13 0.28l-4.57-2.1q-0.41 1.04-0.14 1.81 0.26 0.78 1.03 1.13 0.58 0.27 1.13 0.15 0.54-0.12 1.07-0.67zm-2.64-3.24 3.42 1.57q0.29-0.82 0.13-1.35-0.22-0.82-1-1.18-0.73-0.33-1.43-0.08t-1.12 1.04zm15.17 7.78 0.99 0.8q-0.98 1.22-2.23 1.52-1.25 0.31-2.57-0.3-1.36-0.63-1.97-1.57-0.61-0.95-0.57-2.22 0.04-1.26 0.59-2.47 0.61-1.32 1.57-2.07t2.13-0.84q1.16-0.08 2.28 0.43 1.27 0.58 1.84 1.63 0.57 1.04 0.37 2.37l-1.23-0.25q0.13-1.06-0.23-1.73t-1.22-1.07q-0.98-0.44-1.84-0.28-0.87 0.17-1.49 0.83-0.62 0.67-1.01 1.5-0.49 1.08-0.55 2.04-0.06 0.95 0.42 1.65t1.26 1.06q0.94 0.43 1.84 0.18t1.62-1.21zm1.23 4.16 3.87-8.47 1.04 0.48-1.39 3.04q1.1-0.51 2.21 0 0.68 0.31 1.06 0.81t0.38 1.07-0.41 1.48l-1.78 3.88-1.04-0.48 1.78-3.88q0.36-0.78 0.19-1.29-0.18-0.51-0.8-0.79-0.46-0.21-0.97-0.17-0.52 0.05-0.88 0.38-0.36 0.34-0.69 1.06l-1.54 3.35-1.03-0.47zm10.75 4.93 0.41-0.89q-1.2 0.7-2.42 0.14-0.54-0.25-0.92-0.68t-0.46-0.84q-0.08-0.42 0.04-0.92 0.07-0.33 0.37-0.99l1.74-3.8 1.03 0.48-1.55 3.39q-0.37 0.81-0.43 1.13-0.09 0.46 0.12 0.84 0.2 0.37 0.67 0.59 0.47 0.21 0.99 0.16t0.88-0.39q0.36-0.33 0.72-1.11l1.5-3.28 1.04 0.47-2.81 6.13-0.92-0.43zm2.72 1.25 2.8-6.12 0.94 0.43-0.4 0.86q1.13-0.7 2.41-0.11 0.55 0.25 0.93 0.66 0.37 0.41 0.45 0.84 0.09 0.43-0.03 0.92-0.07 0.31-0.41 1.04l-1.72 3.76-1.04-0.48 1.71-3.72q0.29-0.64 0.31-1.01 0.03-0.36-0.19-0.69-0.22-0.34-0.63-0.53-0.67-0.3-1.34-0.1-0.68 0.19-1.22 1.37l-1.53 3.36-1.04-0.48zm6.74 3.09 3.87-8.47 1.04 0.48-2.21 4.83 3.59-1.36 1.35 0.62-3.38 1.2 0.82 5.03-1.28-0.58-0.59-4.07-1.06 0.37-1.12 2.43-1.03-0.48zm6.48 0.76 1.1 0.31q-0.2 0.65 0.05 1.17 0.24 0.51 0.95 0.84 0.71 0.32 1.19 0.19t0.67-0.53q0.16-0.35-0.06-0.69-0.15-0.24-0.91-0.85-1-0.8-1.34-1.22-0.35-0.41-0.41-0.89-0.05-0.47 0.15-0.93 0.19-0.41 0.54-0.67 0.34-0.26 0.77-0.34 0.33-0.08 0.8 0 0.48 0.07 0.96 0.29 0.71 0.32 1.16 0.78t0.55 0.93q0.1 0.48-0.07 1.12l-1.09-0.33q0.15-0.51-0.05-0.92-0.21-0.42-0.82-0.7-0.71-0.32-1.13-0.23t-0.57 0.42q-0.09 0.2-0.03 0.41 0.05 0.23 0.26 0.47 0.13 0.13 0.81 0.68 0.97 0.8 1.32 1.19 0.35 0.38 0.43 0.86 0.08 0.47-0.16 1-0.24 0.52-0.75 0.84-0.51 0.31-1.2 0.31-0.68-0.01-1.41-0.34-1.19-0.55-1.59-1.33t-0.12-1.84z"/>
</g>
</svg>
