<?xml version="1.0" encoding="UTF-8" standalone="no"?>
<!-- Created with Inkscape (http://www.inkscape.org/) -->

<svg
   width="210mm"
   height="297mm"
   viewBox="0 0 210 297"
   version="1.1"
   id="svg5"
   sodipodi:docname="grothendieck-construction.svg"
   inkscape:version="1.1 (c4e8f9ed74, 2021-05-24)"
   xmlns:inkscape="http://www.inkscape.org/namespaces/inkscape"
   xmlns:sodipodi="http://sodipodi.sourceforge.net/DTD/sodipodi-0.dtd"
   xmlns="http://www.w3.org/2000/svg"
   xmlns:svg="http://www.w3.org/2000/svg">
  <sodipodi:namedview
     id="namedview7"
     pagecolor="#ffffff"
     bordercolor="#666666"
     borderopacity="1.0"
     inkscape:pageshadow="2"
     inkscape:pageopacity="0.0"
     inkscape:pagecheckerboard="0"
     inkscape:document-units="mm"
     showgrid="false"
     inkscape:zoom="0.80204638"
     inkscape:cx="158.34496"
     inkscape:cy="129.66831"
     inkscape:window-width="1676"
     inkscape:window-height="999"
     inkscape:window-x="0"
     inkscape:window-y="24"
     inkscape:window-maximized="1"
     inkscape:current-layer="layer1" />
  <defs
     id="defs2">
    <marker
       style="overflow:visible"
       id="StopL"
       refX="0.0"
       refY="0.0"
       orient="auto"
       inkscape:stockid="StopL"
       inkscape:isstock="true">
      <path
         transform="scale(0.8)"
         style="fill:none;fill-opacity:0.75000000;fill-rule:evenodd;stroke:context-stroke;stroke-width:1.0pt"
         d="M 0.0,5.65 L 0.0,-5.65"
         id="path12500" />
    </marker>
    <marker
       style="overflow:visible"
       id="TriangleOutM"
       refX="0.0"
       refY="0.0"
       orient="auto"
       inkscape:stockid="TriangleOutM"
       inkscape:isstock="true">
      <path
         transform="scale(0.4)"
         style="fill-rule:evenodd;fill:context-stroke;stroke:context-stroke;stroke-width:1.0pt"
         d="M 5.77,0.0 L -2.88,5.0 L -2.88,-5.0 L 5.77,0.0 z "
         id="path12476" />
    </marker>
    <g
       id="g1663">
      <symbol
         overflow="visible"
         id="symbol805">
        <path
           style="stroke:none;"
           d=""
           id="path298" />
      </symbol>
      <symbol
         overflow="visible"
         id="symbol9671">
        <path
           style="stroke:none;"
           d="M 4.859375 -2.765625 C 4.921875 -2.9375 4.9375 -3.078125 4.9375 -3.34375 C 4.9375 -3.984375 4.546875 -4.40625 3.796875 -4.40625 C 3.015625 -4.40625 2.5 -3.890625 2.25 -3.53125 C 2.203125 -4.109375 1.78125 -4.40625 1.328125 -4.40625 C 0.875 -4.40625 0.6875 -4.015625 0.59375 -3.84375 C 0.421875 -3.5 0.296875 -2.90625 0.296875 -2.875 C 0.296875 -2.765625 0.390625 -2.765625 0.40625 -2.765625 C 0.515625 -2.765625 0.515625 -2.78125 0.578125 -3 C 0.75 -3.703125 0.953125 -4.1875 1.3125 -4.1875 C 1.46875 -4.1875 1.609375 -4.109375 1.609375 -3.734375 C 1.609375 -3.515625 1.578125 -3.40625 1.453125 -2.890625 L 0.875 -0.59375 C 0.84375 -0.4375 0.78125 -0.203125 0.78125 -0.15625 C 0.78125 0.015625 0.921875 0.109375 1.078125 0.109375 C 1.203125 0.109375 1.375 0.03125 1.453125 -0.171875 C 1.453125 -0.1875 1.578125 -0.65625 1.640625 -0.90625 L 1.859375 -1.796875 C 1.90625 -2.03125 1.96875 -2.25 2.03125 -2.46875 C 2.046875 -2.53125 2.125 -2.859375 2.140625 -2.921875 C 2.15625 -3.015625 2.46875 -3.5625 2.8125 -3.84375 C 3.03125 -4 3.34375 -4.1875 3.765625 -4.1875 C 4.203125 -4.1875 4.3125 -3.84375 4.3125 -3.484375 C 4.3125 -3.4375 4.3125 -3.265625 4.203125 -2.859375 L 3.078125 1.71875 C 3.046875 1.84375 3.046875 1.859375 3.046875 1.890625 C 3.046875 2.03125 3.15625 2.15625 3.3125 2.15625 C 3.625 2.15625 3.703125 1.859375 3.734375 1.75 Z M 4.859375 -2.765625 "
           id="path6764" />
      </symbol>
      <symbol
         overflow="visible"
         id="symbol7555">
        <path
           style="stroke:none;"
           d="M 7.609375 -6.046875 C 7.703125 -6.40625 7.71875 -6.5 8.4375 -6.5 C 8.703125 -6.5 8.78125 -6.5 8.78125 -6.703125 C 8.78125 -6.8125 8.671875 -6.8125 8.640625 -6.8125 C 8.359375 -6.8125 7.640625 -6.78125 7.359375 -6.78125 C 7.078125 -6.78125 6.375 -6.8125 6.078125 -6.8125 C 6 -6.8125 5.890625 -6.8125 5.890625 -6.609375 C 5.890625 -6.5 5.984375 -6.5 6.171875 -6.5 C 6.1875 -6.5 6.375 -6.5 6.546875 -6.484375 C 6.734375 -6.453125 6.8125 -6.453125 6.8125 -6.3125 C 6.8125 -6.28125 6.8125 -6.265625 6.78125 -6.125 L 6.1875 -3.703125 L 3.140625 -3.703125 L 3.734375 -6.046875 C 3.8125 -6.40625 3.84375 -6.5 4.5625 -6.5 C 4.828125 -6.5 4.90625 -6.5 4.90625 -6.703125 C 4.90625 -6.8125 4.796875 -6.8125 4.765625 -6.8125 C 4.484375 -6.8125 3.765625 -6.78125 3.484375 -6.78125 C 3.203125 -6.78125 2.5 -6.8125 2.203125 -6.8125 C 2.125 -6.8125 2.015625 -6.8125 2.015625 -6.609375 C 2.015625 -6.5 2.109375 -6.5 2.296875 -6.5 C 2.3125 -6.5 2.5 -6.5 2.671875 -6.484375 C 2.84375 -6.453125 2.9375 -6.453125 2.9375 -6.3125 C 2.9375 -6.28125 2.9375 -6.25 2.90625 -6.125 L 1.5625 -0.78125 C 1.46875 -0.390625 1.453125 -0.3125 0.65625 -0.3125 C 0.484375 -0.3125 0.390625 -0.3125 0.390625 -0.109375 C 0.390625 0 0.515625 0 0.53125 0 C 0.8125 0 1.515625 -0.03125 1.796875 -0.03125 C 2 -0.03125 2.21875 -0.015625 2.4375 -0.015625 C 2.65625 -0.015625 2.875 0 3.078125 0 C 3.15625 0 3.28125 0 3.28125 -0.203125 C 3.28125 -0.3125 3.1875 -0.3125 3 -0.3125 C 2.625 -0.3125 2.359375 -0.3125 2.359375 -0.484375 C 2.359375 -0.546875 2.375 -0.59375 2.375 -0.65625 L 3.0625 -3.390625 L 6.09375 -3.390625 C 5.6875 -1.734375 5.453125 -0.78125 5.40625 -0.640625 C 5.3125 -0.3125 5.125 -0.3125 4.5 -0.3125 C 4.359375 -0.3125 4.265625 -0.3125 4.265625 -0.109375 C 4.265625 0 4.390625 0 4.40625 0 C 4.6875 0 5.390625 -0.03125 5.671875 -0.03125 C 5.875 -0.03125 6.09375 -0.015625 6.3125 -0.015625 C 6.53125 -0.015625 6.75 0 6.953125 0 C 7.03125 0 7.15625 0 7.15625 -0.203125 C 7.15625 -0.3125 7.0625 -0.3125 6.875 -0.3125 C 6.515625 -0.3125 6.234375 -0.3125 6.234375 -0.484375 C 6.234375 -0.546875 6.25 -0.59375 6.265625 -0.65625 Z M 7.609375 -6.046875 "
           id="path1259" />
      </symbol>
      <symbol
         overflow="visible"
         id="symbol6288">
        <path
           style="stroke:none;"
           d="M 4.671875 -2.71875 C 4.671875 -3.765625 3.984375 -4.40625 3.078125 -4.40625 C 1.75 -4.40625 0.40625 -2.984375 0.40625 -1.578125 C 0.40625 -0.59375 1.078125 0.109375 2 0.109375 C 3.328125 0.109375 4.671875 -1.265625 4.671875 -2.71875 Z M 2.015625 -0.109375 C 1.578125 -0.109375 1.140625 -0.421875 1.140625 -1.203125 C 1.140625 -1.6875 1.40625 -2.765625 1.71875 -3.265625 C 2.21875 -4.03125 2.796875 -4.1875 3.078125 -4.1875 C 3.65625 -4.1875 3.953125 -3.703125 3.953125 -3.109375 C 3.953125 -2.71875 3.75 -1.671875 3.375 -1.03125 C 3.015625 -0.453125 2.46875 -0.109375 2.015625 -0.109375 Z M 2.015625 -0.109375 "
           id="path1042" />
      </symbol>
      <symbol
         overflow="visible"
         id="symbol5321">
        <path
           style="stroke:none;"
           d="M 0.875 -0.59375 C 0.84375 -0.4375 0.78125 -0.203125 0.78125 -0.15625 C 0.78125 0.015625 0.921875 0.109375 1.078125 0.109375 C 1.203125 0.109375 1.375 0.03125 1.453125 -0.171875 C 1.453125 -0.1875 1.578125 -0.65625 1.640625 -0.90625 L 1.859375 -1.796875 C 1.90625 -2.03125 1.96875 -2.25 2.03125 -2.46875 C 2.0625 -2.640625 2.140625 -2.9375 2.15625 -2.96875 C 2.296875 -3.28125 2.828125 -4.1875 3.78125 -4.1875 C 4.234375 -4.1875 4.3125 -3.8125 4.3125 -3.484375 C 4.3125 -3.234375 4.25 -2.953125 4.171875 -2.65625 L 3.890625 -1.5 L 3.6875 -0.75 C 3.65625 -0.546875 3.5625 -0.203125 3.5625 -0.15625 C 3.5625 0.015625 3.703125 0.109375 3.84375 0.109375 C 4.15625 0.109375 4.21875 -0.140625 4.296875 -0.453125 C 4.4375 -1.015625 4.8125 -2.46875 4.890625 -2.859375 C 4.921875 -2.984375 5.453125 -4.1875 6.546875 -4.1875 C 6.96875 -4.1875 7.078125 -3.84375 7.078125 -3.484375 C 7.078125 -2.921875 6.65625 -1.78125 6.453125 -1.25 C 6.375 -1.015625 6.328125 -0.90625 6.328125 -0.703125 C 6.328125 -0.234375 6.671875 0.109375 7.140625 0.109375 C 8.078125 0.109375 8.453125 -1.34375 8.453125 -1.421875 C 8.453125 -1.53125 8.359375 -1.53125 8.328125 -1.53125 C 8.234375 -1.53125 8.234375 -1.5 8.1875 -1.34375 C 8.03125 -0.8125 7.71875 -0.109375 7.171875 -0.109375 C 7 -0.109375 6.921875 -0.203125 6.921875 -0.4375 C 6.921875 -0.6875 7.015625 -0.921875 7.109375 -1.140625 C 7.296875 -1.671875 7.71875 -2.765625 7.71875 -3.34375 C 7.71875 -3.984375 7.3125 -4.40625 6.5625 -4.40625 C 5.828125 -4.40625 5.3125 -3.96875 4.9375 -3.4375 C 4.9375 -3.5625 4.90625 -3.90625 4.625 -4.140625 C 4.375 -4.359375 4.0625 -4.40625 3.8125 -4.40625 C 2.90625 -4.40625 2.421875 -3.765625 2.25 -3.53125 C 2.203125 -4.109375 1.78125 -4.40625 1.328125 -4.40625 C 0.875 -4.40625 0.6875 -4.015625 0.59375 -3.84375 C 0.421875 -3.484375 0.296875 -2.90625 0.296875 -2.875 C 0.296875 -2.765625 0.390625 -2.765625 0.40625 -2.765625 C 0.515625 -2.765625 0.515625 -2.78125 0.578125 -3 C 0.75 -3.703125 0.953125 -4.1875 1.3125 -4.1875 C 1.46875 -4.1875 1.609375 -4.109375 1.609375 -3.734375 C 1.609375 -3.515625 1.578125 -3.40625 1.453125 -2.890625 Z M 0.875 -0.59375 "
           id="path1640" />
      </symbol>
      <symbol
         overflow="visible"
         id="symbol5750">
        <path
           style="stroke:none;"
           d="M 3.953125 -3.78125 C 3.78125 -3.78125 3.65625 -3.78125 3.515625 -3.65625 C 3.34375 -3.5 3.328125 -3.328125 3.328125 -3.265625 C 3.328125 -3.015625 3.515625 -2.90625 3.703125 -2.90625 C 3.984375 -2.90625 4.25 -3.15625 4.25 -3.546875 C 4.25 -4.03125 3.78125 -4.40625 3.078125 -4.40625 C 1.734375 -4.40625 0.40625 -2.984375 0.40625 -1.578125 C 0.40625 -0.671875 0.984375 0.109375 2.03125 0.109375 C 3.453125 0.109375 4.28125 -0.953125 4.28125 -1.0625 C 4.28125 -1.125 4.234375 -1.203125 4.171875 -1.203125 C 4.109375 -1.203125 4.09375 -1.171875 4.03125 -1.09375 C 3.25 -0.109375 2.15625 -0.109375 2.046875 -0.109375 C 1.421875 -0.109375 1.140625 -0.59375 1.140625 -1.203125 C 1.140625 -1.609375 1.34375 -2.578125 1.6875 -3.1875 C 2 -3.765625 2.546875 -4.1875 3.09375 -4.1875 C 3.421875 -4.1875 3.8125 -4.0625 3.953125 -3.78125 Z M 3.953125 -3.78125 "
           id="path6966" />
      </symbol>
      <symbol
         overflow="visible"
         id="symbol4433">
        <path
           style="stroke:none;"
           d="M 2.03125 -0.015625 C 2.03125 -0.671875 1.78125 -1.0625 1.390625 -1.0625 C 1.0625 -1.0625 0.859375 -0.8125 0.859375 -0.53125 C 0.859375 -0.265625 1.0625 0 1.390625 0 C 1.5 0 1.640625 -0.046875 1.734375 -0.125 C 1.765625 -0.15625 1.78125 -0.15625 1.78125 -0.15625 C 1.796875 -0.15625 1.796875 -0.15625 1.796875 -0.015625 C 1.796875 0.734375 1.453125 1.328125 1.125 1.65625 C 1.015625 1.765625 1.015625 1.78125 1.015625 1.8125 C 1.015625 1.890625 1.0625 1.921875 1.109375 1.921875 C 1.21875 1.921875 2.03125 1.15625 2.03125 -0.015625 Z M 2.03125 -0.015625 "
           id="path7233" />
      </symbol>
      <symbol
         overflow="visible"
         id="symbol5382">
        <path
           style="stroke:none;"
           d="M 3.015625 -3.15625 L 4.71875 -3.15625 C 6.125 -3.15625 7.515625 -4.1875 7.515625 -5.296875 C 7.515625 -6.078125 6.859375 -6.8125 5.546875 -6.8125 L 2.328125 -6.8125 C 2.140625 -6.8125 2.03125 -6.8125 2.03125 -6.625 C 2.03125 -6.5 2.109375 -6.5 2.3125 -6.5 C 2.4375 -6.5 2.625 -6.484375 2.734375 -6.484375 C 2.90625 -6.453125 2.953125 -6.4375 2.953125 -6.3125 C 2.953125 -6.28125 2.953125 -6.25 2.921875 -6.125 L 1.578125 -0.78125 C 1.484375 -0.390625 1.46875 -0.3125 0.671875 -0.3125 C 0.515625 -0.3125 0.40625 -0.3125 0.40625 -0.125 C 0.40625 0 0.515625 0 0.546875 0 C 0.828125 0 1.53125 -0.03125 1.8125 -0.03125 C 2.03125 -0.03125 2.25 -0.015625 2.453125 -0.015625 C 2.671875 -0.015625 2.890625 0 3.09375 0 C 3.171875 0 3.296875 0 3.296875 -0.203125 C 3.296875 -0.3125 3.203125 -0.3125 3.015625 -0.3125 C 2.65625 -0.3125 2.375 -0.3125 2.375 -0.484375 C 2.375 -0.546875 2.390625 -0.59375 2.40625 -0.65625 Z M 3.734375 -6.125 C 3.828125 -6.46875 3.84375 -6.5 4.28125 -6.5 L 5.234375 -6.5 C 6.0625 -6.5 6.59375 -6.234375 6.59375 -5.546875 C 6.59375 -5.15625 6.390625 -4.296875 6 -3.9375 C 5.5 -3.484375 4.90625 -3.40625 4.46875 -3.40625 L 3.0625 -3.40625 Z M 3.734375 -6.125 "
           id="path832" />
      </symbol>
      <symbol
         overflow="visible"
         id="symbol6374">
        <path
           style="stroke:none;"
           d=""
           id="path4377" />
      </symbol>
      <symbol
         overflow="visible"
         id="symbol2557">
        <path
           style="stroke:none;"
           d="M 1.90625 -3.765625 C 1.90625 -4.0625 1.671875 -4.296875 1.390625 -4.296875 C 1.09375 -4.296875 0.859375 -4.0625 0.859375 -3.765625 C 0.859375 -3.484375 1.09375 -3.234375 1.390625 -3.234375 C 1.671875 -3.234375 1.90625 -3.484375 1.90625 -3.765625 Z M 1.90625 -0.53125 C 1.90625 -0.8125 1.671875 -1.0625 1.390625 -1.0625 C 1.09375 -1.0625 0.859375 -0.8125 0.859375 -0.53125 C 0.859375 -0.234375 1.09375 0 1.390625 0 C 1.671875 0 1.90625 -0.234375 1.90625 -0.53125 Z M 1.90625 -0.53125 "
           id="path207" />
      </symbol>
      <symbol
         overflow="visible"
         id="symbol4592">
        <path
           style="stroke:none;"
           d="M 3.296875 2.390625 C 3.296875 2.359375 3.296875 2.34375 3.125 2.171875 C 1.890625 0.921875 1.5625 -0.96875 1.5625 -2.5 C 1.5625 -4.234375 1.9375 -5.96875 3.171875 -7.203125 C 3.296875 -7.328125 3.296875 -7.34375 3.296875 -7.375 C 3.296875 -7.453125 3.265625 -7.484375 3.203125 -7.484375 C 3.09375 -7.484375 2.203125 -6.796875 1.609375 -5.53125 C 1.109375 -4.4375 0.984375 -3.328125 0.984375 -2.5 C 0.984375 -1.71875 1.09375 -0.515625 1.640625 0.625 C 2.25 1.84375 3.09375 2.5 3.203125 2.5 C 3.265625 2.5 3.296875 2.46875 3.296875 2.390625 Z M 3.296875 2.390625 "
           id="path3360" />
      </symbol>
      <symbol
         overflow="visible"
         id="symbol2294">
        <path
           style="stroke:none;"
           d="M 2.875 -2.5 C 2.875 -3.265625 2.765625 -4.46875 2.21875 -5.609375 C 1.625 -6.828125 0.765625 -7.484375 0.671875 -7.484375 C 0.609375 -7.484375 0.5625 -7.4375 0.5625 -7.375 C 0.5625 -7.34375 0.5625 -7.328125 0.75 -7.140625 C 1.734375 -6.15625 2.296875 -4.578125 2.296875 -2.5 C 2.296875 -0.78125 1.9375 0.96875 0.703125 2.21875 C 0.5625 2.34375 0.5625 2.359375 0.5625 2.390625 C 0.5625 2.453125 0.609375 2.5 0.671875 2.5 C 0.765625 2.5 1.671875 1.8125 2.25 0.546875 C 2.765625 -0.546875 2.875 -1.65625 2.875 -2.5 Z M 2.875 -2.5 "
           id="path2252" />
      </symbol>
      <symbol
         overflow="visible"
         id="symbol4104">
        <path
           style="stroke:none;"
           d=""
           id="path2859" />
      </symbol>
      <symbol
         overflow="visible"
         id="symbol6407">
        <path
           style="stroke:none;"
           d="M 6.5625 -2.296875 C 6.734375 -2.296875 6.921875 -2.296875 6.921875 -2.5 C 6.921875 -2.6875 6.734375 -2.6875 6.5625 -2.6875 L 1.171875 -2.6875 C 1 -2.6875 0.828125 -2.6875 0.828125 -2.5 C 0.828125 -2.296875 1 -2.296875 1.171875 -2.296875 Z M 6.5625 -2.296875 "
           id="path9154" />
      </symbol>
      <symbol
         overflow="visible"
         id="symbol937">
        <path
           style="stroke:none;"
           d="M 7.234375 -3.265625 C 7.65625 -2.90625 8.171875 -2.640625 8.5 -2.5 C 8.140625 -2.328125 7.640625 -2.078125 7.234375 -1.71875 L 0.90625 -1.71875 C 0.734375 -1.71875 0.546875 -1.71875 0.546875 -1.53125 C 0.546875 -1.328125 0.734375 -1.328125 0.890625 -1.328125 L 6.78125 -1.328125 C 6.3125 -0.875 5.796875 0.015625 5.796875 0.140625 C 5.796875 0.25 5.921875 0.25 5.984375 0.25 C 6.0625 0.25 6.125 0.25 6.171875 0.171875 C 6.375 -0.203125 6.65625 -0.734375 7.3125 -1.3125 C 8 -1.921875 8.65625 -2.1875 9.1875 -2.34375 C 9.34375 -2.40625 9.359375 -2.40625 9.375 -2.4375 C 9.40625 -2.4375 9.40625 -2.46875 9.40625 -2.5 C 9.40625 -2.515625 9.40625 -2.53125 9.390625 -2.546875 L 9.359375 -2.578125 C 9.34375 -2.578125 9.328125 -2.59375 9.140625 -2.65625 C 7.796875 -3.046875 6.796875 -3.953125 6.234375 -5.03125 C 6.125 -5.21875 6.125 -5.234375 5.984375 -5.234375 C 5.921875 -5.234375 5.796875 -5.234375 5.796875 -5.125 C 5.796875 -5 6.296875 -4.125 6.78125 -3.65625 L 0.890625 -3.65625 C 0.734375 -3.65625 0.546875 -3.65625 0.546875 -3.453125 C 0.546875 -3.265625 0.734375 -3.265625 0.90625 -3.265625 Z M 7.234375 -3.265625 "
           id="path203" />
      </symbol>
    </g>
    <marker
       style="overflow:visible"
       id="TriangleOutM-7"
       refX="0"
       refY="0"
       orient="auto"
       inkscape:stockid="TriangleOutM"
       inkscape:isstock="true">
      <path
         transform="scale(0.4)"
         style="fill:context-stroke;fill-rule:evenodd;stroke:context-stroke;stroke-width:1pt"
         d="M 5.77,0 -2.88,5 V -5 Z"
         id="path12476-5" />
    </marker>
    <marker
       style="overflow:visible"
       id="TriangleOutM-7-5"
       refX="0"
       refY="0"
       orient="auto"
       inkscape:stockid="TriangleOutM"
       inkscape:isstock="true">
      <path
         transform="scale(0.4)"
         style="fill:context-stroke;fill-rule:evenodd;stroke:context-stroke;stroke-width:1pt"
         d="M 5.77,0 -2.88,5 V -5 Z"
         id="path12476-5-6" />
    </marker>
    <marker
       style="overflow:visible"
       id="TriangleOutM-9"
       refX="0"
       refY="0"
       orient="auto"
       inkscape:stockid="TriangleOutM"
       inkscape:isstock="true">
      <path
         transform="scale(0.4)"
         style="fill:context-stroke;fill-rule:evenodd;stroke:context-stroke;stroke-width:1pt"
         d="M 5.77,0 -2.88,5 V -5 Z"
         id="path12476-1" />
    </marker>
    <marker
       style="overflow:visible"
       id="TriangleOutM-0"
       refX="0"
       refY="0"
       orient="auto"
       inkscape:stockid="TriangleOutM"
       inkscape:isstock="true">
      <path
         transform="scale(0.4)"
         style="fill:context-stroke;fill-rule:evenodd;stroke:context-stroke;stroke-width:1pt"
         d="M 5.77,0 -2.88,5 V -5 Z"
         id="path12476-6" />
    </marker>
    <marker
       style="overflow:visible"
       id="TriangleOutM-7-2"
       refX="0"
       refY="0"
       orient="auto"
       inkscape:stockid="TriangleOutM"
       inkscape:isstock="true">
      <path
         transform="scale(0.4)"
         style="fill:context-stroke;fill-rule:evenodd;stroke:context-stroke;stroke-width:1pt"
         d="M 5.77,0 -2.88,5 V -5 Z"
         id="path12476-5-61" />
    </marker>
    <marker
       style="overflow:visible"
       id="TriangleOutM-7-5-8"
       refX="0"
       refY="0"
       orient="auto"
       inkscape:stockid="TriangleOutM"
       inkscape:isstock="true">
      <path
         transform="scale(0.4)"
         style="fill:context-stroke;fill-rule:evenodd;stroke:context-stroke;stroke-width:1pt"
         d="M 5.77,0 -2.88,5 V -5 Z"
         id="path12476-5-6-7" />
    </marker>
    <marker
       style="overflow:visible"
       id="TriangleOutM-2"
       refX="0"
       refY="0"
       orient="auto"
       inkscape:stockid="TriangleOutM"
       inkscape:isstock="true">
      <path
         transform="scale(0.4)"
         style="fill:context-stroke;fill-rule:evenodd;stroke:context-stroke;stroke-width:1pt"
         d="M 5.77,0 -2.88,5 V -5 Z"
         id="path12476-8" />
    </marker>
    <marker
       style="overflow:visible"
       id="TriangleOutM-7-9"
       refX="0"
       refY="0"
       orient="auto"
       inkscape:stockid="TriangleOutM"
       inkscape:isstock="true">
      <path
         transform="scale(0.4)"
         style="fill:context-stroke;fill-rule:evenodd;stroke:context-stroke;stroke-width:1pt"
         d="M 5.77,0 -2.88,5 V -5 Z"
         id="path12476-5-7" />
    </marker>
    <marker
       style="overflow:visible"
       id="TriangleOutM-7-5-3"
       refX="0"
       refY="0"
       orient="auto"
       inkscape:stockid="TriangleOutM"
       inkscape:isstock="true">
      <path
         transform="scale(0.4)"
         style="fill:context-stroke;fill-rule:evenodd;stroke:context-stroke;stroke-width:1pt"
         d="M 5.77,0 -2.88,5 V -5 Z"
         id="path12476-5-6-6" />
    </marker>
    <marker
       style="overflow:visible"
       id="TriangleOutM-7-0"
       refX="0"
       refY="0"
       orient="auto"
       inkscape:stockid="TriangleOutM"
       inkscape:isstock="true">
      <path
         transform="scale(0.4)"
         style="fill:context-stroke;fill-rule:evenodd;stroke:context-stroke;stroke-width:1pt"
         d="M 5.77,0 -2.88,5 V -5 Z"
         id="path12476-5-3" />
    </marker>
    <marker
       style="overflow:visible"
       id="TriangleOutM-7-5-6"
       refX="0"
       refY="0"
       orient="auto"
       inkscape:stockid="TriangleOutM"
       inkscape:isstock="true">
      <path
         transform="scale(0.4)"
         style="fill:context-stroke;fill-rule:evenodd;stroke:context-stroke;stroke-width:1pt"
         d="M 5.77,0 -2.88,5 V -5 Z"
         id="path12476-5-6-1" />
    </marker>
    <marker
       style="overflow:visible"
       id="TriangleOutM-2-6"
       refX="0"
       refY="0"
       orient="auto"
       inkscape:stockid="TriangleOutM"
       inkscape:isstock="true">
      <path
         transform="scale(0.4)"
         style="fill:context-stroke;fill-rule:evenodd;stroke:context-stroke;stroke-width:1pt"
         d="M 5.77,0 -2.88,5 V -5 Z"
         id="path12476-8-5" />
    </marker>
    <marker
       style="overflow:visible"
       id="TriangleOutM-2-9"
       refX="0"
       refY="0"
       orient="auto"
       inkscape:stockid="TriangleOutM"
       inkscape:isstock="true">
      <path
         transform="scale(0.4)"
         style="fill:context-stroke;fill-rule:evenodd;stroke:context-stroke;stroke-width:1pt"
         d="M 5.77,0 -2.88,5 V -5 Z"
         id="path12476-8-3" />
    </marker>
    <marker
       style="overflow:visible"
       id="TriangleOutM-2-4"
       refX="0"
       refY="0"
       orient="auto"
       inkscape:stockid="TriangleOutM"
       inkscape:isstock="true">
      <path
         transform="scale(0.4)"
         style="fill:context-stroke;fill-rule:evenodd;stroke:context-stroke;stroke-width:1pt"
         d="M 5.77,0 -2.88,5 V -5 Z"
         id="path12476-8-52" />
    </marker>
    <marker
       style="overflow:visible"
       id="TriangleOutM-7-9-5"
       refX="0"
       refY="0"
       orient="auto"
       inkscape:stockid="TriangleOutM"
       inkscape:isstock="true">
      <path
         transform="scale(0.4)"
         style="fill:context-stroke;fill-rule:evenodd;stroke:context-stroke;stroke-width:1pt"
         d="M 5.77,0 -2.88,5 V -5 Z"
         id="path12476-5-7-4" />
    </marker>
    <marker
       style="overflow:visible"
       id="TriangleOutM-7-5-3-7"
       refX="0"
       refY="0"
       orient="auto"
       inkscape:stockid="TriangleOutM"
       inkscape:isstock="true">
      <path
         transform="scale(0.4)"
         style="fill:context-stroke;fill-rule:evenodd;stroke:context-stroke;stroke-width:1pt"
         d="M 5.77,0 -2.88,5 V -5 Z"
         id="path12476-5-6-6-4" />
    </marker>
    <marker
       style="overflow:visible"
       id="TriangleOutM-7-9-5-4"
       refX="0"
       refY="0"
       orient="auto"
       inkscape:stockid="TriangleOutM"
       inkscape:isstock="true">
      <path
         transform="scale(0.4)"
         style="fill:context-stroke;fill-rule:evenodd;stroke:context-stroke;stroke-width:1pt"
         d="M 5.77,0 -2.88,5 V -5 Z"
         id="path12476-5-7-4-9" />
    </marker>
    <marker
       style="overflow:visible"
       id="TriangleOutM-7-5-3-7-0"
       refX="0"
       refY="0"
       orient="auto"
       inkscape:stockid="TriangleOutM"
       inkscape:isstock="true">
      <path
         transform="scale(0.4)"
         style="fill:context-stroke;fill-rule:evenodd;stroke:context-stroke;stroke-width:1pt"
         d="M 5.77,0 -2.88,5 V -5 Z"
         id="path12476-5-6-6-4-6" />
    </marker>
    <marker
       style="overflow:visible"
       id="TriangleOutM-2-4-9"
       refX="0"
       refY="0"
       orient="auto"
       inkscape:stockid="TriangleOutM"
       inkscape:isstock="true">
      <path
         transform="scale(0.4)"
         style="fill:context-stroke;fill-rule:evenodd;stroke:context-stroke;stroke-width:1pt"
         d="M 5.77,0 -2.88,5 V -5 Z"
         id="path12476-8-52-2" />
    </marker>
    <marker
       style="overflow:visible"
       id="TriangleOutM-2-4-8"
       refX="0"
       refY="0"
       orient="auto"
       inkscape:stockid="TriangleOutM"
       inkscape:isstock="true">
      <path
         transform="scale(0.4)"
         style="fill:context-stroke;fill-rule:evenodd;stroke:context-stroke;stroke-width:1pt"
         d="M 5.77,0 -2.88,5 V -5 Z"
         id="path12476-8-52-7" />
    </marker>
    <marker
       style="overflow:visible"
       id="TriangleOutM-2-4-9-1"
       refX="0"
       refY="0"
       orient="auto"
       inkscape:stockid="TriangleOutM"
       inkscape:isstock="true">
      <path
         transform="scale(0.4)"
         style="fill:context-stroke;fill-rule:evenodd;stroke:context-stroke;stroke-width:1pt"
         d="M 5.77,0 -2.88,5 V -5 Z"
         id="path12476-8-52-2-7" />
    </marker>
    <marker
       style="overflow:visible"
       id="TriangleOutM-7-9-5-2"
       refX="0"
       refY="0"
       orient="auto"
       inkscape:stockid="TriangleOutM"
       inkscape:isstock="true">
      <path
         transform="scale(0.4)"
         style="fill:context-stroke;fill-rule:evenodd;stroke:context-stroke;stroke-width:1pt"
         d="M 5.77,0 -2.88,5 V -5 Z"
         id="path12476-5-7-4-7" />
    </marker>
    <marker
       style="overflow:visible"
       id="TriangleOutM-7-9-5-4-2"
       refX="0"
       refY="0"
       orient="auto"
       inkscape:stockid="TriangleOutM"
       inkscape:isstock="true">
      <path
         transform="scale(0.4)"
         style="fill:context-stroke;fill-rule:evenodd;stroke:context-stroke;stroke-width:1pt"
         d="M 5.77,0 -2.88,5 V -5 Z"
         id="path12476-5-7-4-9-2" />
    </marker>
    <marker
       style="overflow:visible"
       id="TriangleOutM-7-5-3-7-6"
       refX="0"
       refY="0"
       orient="auto"
       inkscape:stockid="TriangleOutM"
       inkscape:isstock="true">
      <path
         transform="scale(0.4)"
         style="fill:context-stroke;fill-rule:evenodd;stroke:context-stroke;stroke-width:1pt"
         d="M 5.77,0 -2.88,5 V -5 Z"
         id="path12476-5-6-6-4-1" />
    </marker>
    <marker
       style="overflow:visible"
       id="TriangleOutM-7-5-3-7-0-0"
       refX="0"
       refY="0"
       orient="auto"
       inkscape:stockid="TriangleOutM"
       inkscape:isstock="true">
      <path
         transform="scale(0.4)"
         style="fill:context-stroke;fill-rule:evenodd;stroke:context-stroke;stroke-width:1pt"
         d="M 5.77,0 -2.88,5 V -5 Z"
         id="path12476-5-6-6-4-6-6" />
    </marker>
    <marker
       style="overflow:visible"
       id="TriangleOutM-2-4-9-1-3"
       refX="0"
       refY="0"
       orient="auto"
       inkscape:stockid="TriangleOutM"
       inkscape:isstock="true">
      <path
         transform="scale(0.4)"
         style="fill:context-stroke;fill-rule:evenodd;stroke:context-stroke;stroke-width:1pt"
         d="M 5.77,0 -2.88,5 V -5 Z"
         id="path12476-8-52-2-7-6" />
    </marker>
  </defs>
  <g
     inkscape:label="Layer 1"
     inkscape:groupmode="layer"
     id="layer1">
    <text
       xml:space="preserve"
       style="font-size:5.29167px;line-height:1.25;font-family:'Meslo LG S DZ for Powerline';-inkscape-font-specification:'Meslo LG S DZ for Powerline';stroke-width:0.79375;stroke-miterlimit:4;stroke-dasharray:none"
       x="5.4482656"
       y="68.455605"
       id="text1508"><tspan
         sodipodi:role="line"
         id="tspan1506"
         style="stroke-width:0.79375;stroke-miterlimit:4;stroke-dasharray:none"
         x="5.4482656"
         y="68.455605">Hom(-, c)</tspan></text>
    <text
       xml:space="preserve"
       style="font-size:5.29167px;line-height:1.25;font-family:'Meslo LG S DZ for Powerline';-inkscape-font-specification:'Meslo LG S DZ for Powerline';stroke-width:0.79375;stroke-miterlimit:4;stroke-dasharray:none"
       x="36.860504"
       y="68.119652"
       id="text1508-3"><tspan
         sodipodi:role="line"
         id="tspan1506-6"
         style="stroke-width:0.79375;stroke-miterlimit:4;stroke-dasharray:none"
         x="36.860504"
         y="68.119652">Hom(-, d)</tspan></text>
    <text
       xml:space="preserve"
       style="font-size:5.29167px;line-height:1.25;font-family:'Meslo LG S DZ for Powerline';-inkscape-font-specification:'Meslo LG S DZ for Powerline';stroke-width:0.79375;stroke-miterlimit:4;stroke-dasharray:none"
       x="21.595877"
       y="47.570534"
       id="text8206"><tspan
         sodipodi:role="line"
         id="tspan8204"
         style="stroke-width:0.79375;stroke-miterlimit:4;stroke-dasharray:none"
         x="21.595877"
         y="47.570534">P</tspan></text>
    <text
       xml:space="preserve"
       style="font-size:5.29167px;line-height:1.25;font-family:'Meslo LG S DZ for Powerline';-inkscape-font-specification:'Meslo LG S DZ for Powerline';stroke-width:0.79375;stroke-miterlimit:4;stroke-dasharray:none"
       x="52.981464"
       y="45.922348"
       id="text8206-4"><tspan
         sodipodi:role="line"
         id="tspan8204-5"
         style="stroke-width:0.79375;stroke-miterlimit:4;stroke-dasharray:none"
         x="52.981464"
         y="45.922348">P</tspan></text>
    <text
       xml:space="preserve"
       style="font-size:5.29167px;line-height:1.25;font-family:'Meslo LG S DZ for Powerline';-inkscape-font-specification:'Meslo LG S DZ for Powerline';stroke-width:0.79375;stroke-miterlimit:4;stroke-dasharray:none"
       x="5.5442719"
       y="8.2732725"
       id="text11486"><tspan
         sodipodi:role="line"
         id="tspan11484"
         style="stroke-width:0.79375;stroke-miterlimit:4;stroke-dasharray:none"
         x="5.5442719"
         y="8.2732725">Hom(-, x) ~= o in P(x)</tspan></text>
    <path
       style="fill:none;stroke:#000000;stroke-width:0.79375;stroke-linecap:butt;stroke-linejoin:miter;stroke-miterlimit:4;stroke-dasharray:none;stroke-opacity:1;marker-end:url(#TriangleOutM-7)"
       d="m 23.057463,65.737227 1e-6,-13.568801"
       id="path12329-3" />
    <path
       style="fill:none;stroke:#000000;stroke-width:0.79375;stroke-linecap:butt;stroke-linejoin:miter;stroke-miterlimit:4;stroke-dasharray:none;stroke-opacity:1;marker-end:url(#TriangleOutM-7-5)"
       d="m 54.580666,65.199481 5e-6,-13.568808"
       id="path12329-3-2" />
    <text
       xml:space="preserve"
       style="font-size:5.29167px;line-height:1.25;font-family:'Meslo LG S DZ for Powerline';-inkscape-font-specification:'Meslo LG S DZ for Powerline';stroke-width:0.79375;stroke-miterlimit:4;stroke-dasharray:none"
       x="107.18486"
       y="67.436508"
       id="text1508-0"><tspan
         sodipodi:role="line"
         id="tspan1506-63"
         style="stroke-width:0.79375;stroke-miterlimit:4;stroke-dasharray:none"
         x="107.18486"
         y="67.436508">Hom(-, c)</tspan></text>
    <text
       xml:space="preserve"
       style="font-size:5.29167px;line-height:1.25;font-family:'Meslo LG S DZ for Powerline';-inkscape-font-specification:'Meslo LG S DZ for Powerline';stroke-width:0.79375;stroke-miterlimit:4;stroke-dasharray:none"
       x="151.79683"
       y="67.964432"
       id="text1508-3-2"><tspan
         sodipodi:role="line"
         id="tspan1506-6-0"
         style="stroke-width:0.79375;stroke-miterlimit:4;stroke-dasharray:none"
         x="151.79683"
         y="67.964432">Hom(-, d)</tspan></text>
    <text
       xml:space="preserve"
       style="font-size:5.29167px;line-height:1.25;font-family:'Meslo LG S DZ for Powerline';-inkscape-font-specification:'Meslo LG S DZ for Powerline';stroke-width:0.79375;stroke-miterlimit:4;stroke-dasharray:none"
       x="123.33247"
       y="46.551437"
       id="text8206-6"><tspan
         sodipodi:role="line"
         id="tspan8204-1"
         style="stroke-width:0.79375;stroke-miterlimit:4;stroke-dasharray:none"
         x="123.33247"
         y="46.551437">P</tspan></text>
    <text
       xml:space="preserve"
       style="font-size:5.29167px;line-height:1.25;font-family:'Meslo LG S DZ for Powerline';-inkscape-font-specification:'Meslo LG S DZ for Powerline';stroke-width:0.79375;stroke-miterlimit:4;stroke-dasharray:none"
       x="155.79146"
       y="45.263599"
       id="text8206-4-5"><tspan
         sodipodi:role="line"
         id="tspan8204-5-5"
         style="stroke-width:0.79375;stroke-miterlimit:4;stroke-dasharray:none"
         x="155.79146"
         y="45.263599">P</tspan></text>
    <path
       style="fill:none;stroke:#000000;stroke-width:0.79375;stroke-linecap:butt;stroke-linejoin:miter;stroke-miterlimit:4;stroke-dasharray:none;stroke-opacity:1;marker-end:url(#TriangleOutM-7-0)"
       d="m 124.43903,64.803676 1e-5,-13.568801"
       id="path12329-3-4" />
    <path
       style="fill:none;stroke:#000000;stroke-width:0.79375;stroke-linecap:butt;stroke-linejoin:miter;stroke-miterlimit:4;stroke-dasharray:none;stroke-opacity:1;marker-end:url(#TriangleOutM-7-5-6)"
       d="M 158.0253,63.367456 V 49.798648"
       id="path12329-3-2-7" />
    <text
       xml:space="preserve"
       style="font-size:5.29167px;line-height:1.25;font-family:'Meslo LG S DZ for Powerline';-inkscape-font-specification:'Meslo LG S DZ for Powerline';stroke-width:0.79375;stroke-miterlimit:4;stroke-dasharray:none"
       x="124.39509"
       y="129.47807"
       id="text1508-1"><tspan
         sodipodi:role="line"
         id="tspan1506-2"
         style="stroke-width:0.79375;stroke-miterlimit:4;stroke-dasharray:none"
         x="124.39509"
         y="129.47807">Hom(-, c)</tspan></text>
    <text
       xml:space="preserve"
       style="font-size:5.29167px;line-height:1.25;font-family:'Meslo LG S DZ for Powerline';-inkscape-font-specification:'Meslo LG S DZ for Powerline';stroke-width:0.79375;stroke-miterlimit:4;stroke-dasharray:none"
       x="171.25615"
       y="129.40051"
       id="text1508-3-9"><tspan
         sodipodi:role="line"
         id="tspan1506-6-3"
         style="stroke-width:0.79375;stroke-miterlimit:4;stroke-dasharray:none"
         x="171.25615"
         y="129.40051">Hom(-, d)</tspan></text>
    <text
       xml:space="preserve"
       style="font-size:5.29167px;line-height:1.25;font-family:'Meslo LG S DZ for Powerline';-inkscape-font-specification:'Meslo LG S DZ for Powerline';stroke-width:0.79375;stroke-miterlimit:4;stroke-dasharray:none"
       x="160.83594"
       y="112.77457"
       id="text8206-1"><tspan
         sodipodi:role="line"
         id="tspan8204-9"
         style="stroke-width:0.79375;stroke-miterlimit:4;stroke-dasharray:none"
         x="160.83594"
         y="112.77457">P</tspan></text>
    <path
       style="fill:none;stroke:#000000;stroke-width:0.79375;stroke-linecap:butt;stroke-linejoin:miter;stroke-miterlimit:4;stroke-dasharray:none;stroke-opacity:1;marker-end:url(#TriangleOutM-2)"
       d="m 153.58962,127.20227 h 13.5688"
       id="path12329-4" />
    <path
       style="fill:none;stroke:#000000;stroke-width:0.79375;stroke-linecap:butt;stroke-linejoin:miter;stroke-miterlimit:4;stroke-dasharray:none;stroke-opacity:1;marker-end:url(#TriangleOutM-2-6)"
       d="m 136.05822,66.620185 h 13.5688"
       id="path12329-4-6" />
    <path
       style="fill:none;stroke:#000000;stroke-width:0.79375;stroke-linecap:butt;stroke-linejoin:miter;stroke-miterlimit:4;stroke-dasharray:none;stroke-opacity:1;marker-end:url(#TriangleOutM-2-9)"
       d="m 132.64262,44.257796 h 13.5688"
       id="path12329-4-7" />
    <path
       style="fill:none;stroke:#000000;stroke-width:0.79375;stroke-linecap:butt;stroke-linejoin:miter;stroke-miterlimit:4;stroke-dasharray:0.79375, 1.5875;stroke-dashoffset:0;stroke-opacity:1;marker-end:url(#TriangleOutM-7-9)"
       d="m 145.10766,124.81045 9.59459,-9.59459"
       id="path12329-3-7" />
    <path
       style="fill:none;stroke:#000000;stroke-width:0.79375;stroke-linecap:butt;stroke-linejoin:miter;stroke-miterlimit:4;stroke-dasharray:0.79375, 1.5875;stroke-dashoffset:0;stroke-opacity:1;marker-end:url(#TriangleOutM-7-5-3)"
       d="m 177.54381,123.98941 -9.59459,-9.5946"
       id="path12329-3-2-8" />
    <text
       xml:space="preserve"
       style="font-size:5.29167px;line-height:1.25;font-family:'Meslo LG S DZ for Powerline';-inkscape-font-specification:'Meslo LG S DZ for Powerline';stroke-width:0.79375;stroke-miterlimit:4;stroke-dasharray:none"
       x="8.1529636"
       y="149.81422"
       id="text1508-1-4"><tspan
         sodipodi:role="line"
         id="tspan1506-2-3"
         style="stroke-width:0.79375;stroke-miterlimit:4;stroke-dasharray:none"
         x="8.1529636"
         y="149.81422">Hom(-, c)</tspan></text>
    <text
       xml:space="preserve"
       style="font-size:5.29167px;line-height:1.25;font-family:'Meslo LG S DZ for Powerline';-inkscape-font-specification:'Meslo LG S DZ for Powerline';stroke-width:0.79375;stroke-miterlimit:4;stroke-dasharray:none"
       x="55.014034"
       y="149.73666"
       id="text1508-3-9-0"><tspan
         sodipodi:role="line"
         id="tspan1506-6-3-7"
         style="stroke-width:0.79375;stroke-miterlimit:4;stroke-dasharray:none"
         x="55.014034"
         y="149.73666">Hom(-, d)</tspan></text>
    <text
       xml:space="preserve"
       style="font-size:5.29167px;line-height:1.25;font-family:'Meslo LG S DZ for Powerline';-inkscape-font-specification:'Meslo LG S DZ for Powerline';stroke-width:0.79375;stroke-miterlimit:4;stroke-dasharray:none"
       x="43.673286"
       y="132.8802"
       id="text8206-1-8"><tspan
         sodipodi:role="line"
         id="tspan8204-9-6"
         style="stroke-width:0.79375;stroke-miterlimit:4;stroke-dasharray:none"
         x="43.673286"
         y="132.8802">P</tspan></text>
    <text
       xml:space="preserve"
       style="font-size:5.29167px;line-height:1.25;font-family:'Meslo LG S DZ for Powerline';-inkscape-font-specification:'Meslo LG S DZ for Powerline';stroke-width:0.79375;stroke-miterlimit:4;stroke-dasharray:none"
       x="42.633049"
       y="105.67374"
       id="text8206-1-8-3"><tspan
         sodipodi:role="line"
         id="tspan8204-9-6-1"
         style="stroke-width:0.79375;stroke-miterlimit:4;stroke-dasharray:none"
         x="42.633049"
         y="105.67374">Q</tspan></text>
    <path
       style="fill:none;stroke:#000000;stroke-width:0.79375;stroke-linecap:butt;stroke-linejoin:miter;stroke-miterlimit:4;stroke-dasharray:none;stroke-opacity:1;marker-end:url(#TriangleOutM-2-4)"
       d="m 37.347497,147.53842 h 13.5688"
       id="path12329-4-8" />
    <path
       style="fill:none;stroke:#000000;stroke-width:0.79375;stroke-linecap:butt;stroke-linejoin:miter;stroke-miterlimit:4;stroke-dasharray:0.79375, 0.79375;stroke-dashoffset:0;stroke-opacity:1;marker-end:url(#TriangleOutM-2-4-9)"
       d="m 44.782153,126.22679 v -13.5688"
       id="path12329-4-8-6" />
    <path
       style="fill:none;stroke:#000000;stroke-width:0.79375;stroke-linecap:butt;stroke-linejoin:miter;stroke-miterlimit:4;stroke-dasharray:none;stroke-dashoffset:0;stroke-opacity:1;marker-end:url(#TriangleOutM-7-9-5)"
       d="m 28.865537,145.1466 9.59459,-9.59459"
       id="path12329-3-7-8" />
    <path
       style="fill:none;stroke:#000000;stroke-width:0.79375;stroke-linecap:butt;stroke-linejoin:miter;stroke-miterlimit:4;stroke-dasharray:none;stroke-dashoffset:0;stroke-opacity:1;marker-end:url(#TriangleOutM-7-9-5-4)"
       d="M 16.314602,143.29887 37.890366,110.92773"
       id="path12329-3-7-8-2" />
    <path
       style="fill:none;stroke:#000000;stroke-width:0.79375;stroke-linecap:butt;stroke-linejoin:miter;stroke-miterlimit:4;stroke-dasharray:none;stroke-dashoffset:0;stroke-opacity:1;marker-end:url(#TriangleOutM-7-5-3-7)"
       d="m 61.301687,144.32556 -9.59459,-9.5946"
       id="path12329-3-2-8-4" />
    <path
       style="fill:none;stroke:#000000;stroke-width:0.79375;stroke-linecap:butt;stroke-linejoin:miter;stroke-miterlimit:4;stroke-dasharray:none;stroke-dashoffset:0;stroke-opacity:1;marker-end:url(#TriangleOutM-7-5-3-7-0)"
       d="M 69.233347,144.06958 51.23501,111.6862"
       id="path12329-3-2-8-4-8" />
    <text
       xml:space="preserve"
       style="font-size:5.29167px;line-height:1.25;font-family:'Meslo LG S DZ for Powerline';-inkscape-font-specification:'Meslo LG S DZ for Powerline';stroke-width:0.264583"
       x="10.370935"
       y="36.6343"
       id="text20738"><tspan
         sodipodi:role="line"
         id="tspan20736"
         style="stroke-width:0.264583"
         x="10.370935"
         y="36.6343">I</tspan></text>
    <text
       xml:space="preserve"
       style="font-size:5.29167px;line-height:1.25;font-family:'Meslo LG S DZ for Powerline';-inkscape-font-specification:'Meslo LG S DZ for Powerline';stroke-width:0.264583"
       x="112.32533"
       y="32.904408"
       id="text20738-6"><tspan
         sodipodi:role="line"
         id="tspan20736-4"
         style="stroke-width:0.264583"
         x="112.32533"
         y="32.904408">II</tspan></text>
    <text
       xml:space="preserve"
       style="font-size:5.29167px;line-height:1.25;font-family:'Meslo LG S DZ for Powerline';-inkscape-font-specification:'Meslo LG S DZ for Powerline';stroke-width:0.264583"
       x="135.44516"
       y="98.410156"
       id="text20738-6-9"><tspan
         sodipodi:role="line"
         id="tspan20736-4-5"
         style="stroke-width:0.264583"
         x="135.44516"
         y="98.410156">III</tspan></text>
    <text
       xml:space="preserve"
       style="font-size:5.29167px;line-height:1.25;font-family:'Meslo LG S DZ for Powerline';-inkscape-font-specification:'Meslo LG S DZ for Powerline';stroke-width:0.264583"
       x="12.829283"
       y="100.46645"
       id="text20738-6-9-0"><tspan
         sodipodi:role="line"
         id="tspan20736-4-5-4"
         style="stroke-width:0.264583"
         x="12.829283"
         y="100.46645">IV</tspan></text>
    <text
       xml:space="preserve"
       style="font-size:5.29167px;line-height:1.25;font-family:'Meslo LG S DZ for Powerline';-inkscape-font-specification:'Meslo LG S DZ for Powerline';stroke-width:0.79375;stroke-miterlimit:4;stroke-dasharray:none"
       x="14.723334"
       y="234.5112"
       id="text1508-1-4-1"><tspan
         sodipodi:role="line"
         id="tspan1506-2-3-5"
         style="stroke-width:0.79375;stroke-miterlimit:4;stroke-dasharray:none"
         x="14.723334"
         y="234.5112">Hom(-, c)</tspan></text>
    <text
       xml:space="preserve"
       style="font-size:5.29167px;line-height:1.25;font-family:'Meslo LG S DZ for Powerline';-inkscape-font-specification:'Meslo LG S DZ for Powerline';stroke-width:0.79375;stroke-miterlimit:4;stroke-dasharray:none"
       x="50.243656"
       y="217.57718"
       id="text8206-1-8-9"><tspan
         sodipodi:role="line"
         id="tspan8204-9-6-0"
         style="stroke-width:0.79375;stroke-miterlimit:4;stroke-dasharray:none"
         x="50.243656"
         y="217.57718">P</tspan></text>
    <text
       xml:space="preserve"
       style="font-size:5.29167px;line-height:1.25;font-family:'Meslo LG S DZ for Powerline';-inkscape-font-specification:'Meslo LG S DZ for Powerline';stroke-width:0.79375;stroke-miterlimit:4;stroke-dasharray:none"
       x="49.203419"
       y="190.37071"
       id="text8206-1-8-3-9"><tspan
         sodipodi:role="line"
         id="tspan8204-9-6-1-1"
         style="stroke-width:0.79375;stroke-miterlimit:4;stroke-dasharray:none"
         x="49.203419"
         y="190.37071">Q</tspan></text>
    <path
       style="fill:none;stroke:#000000;stroke-width:0.79375;stroke-linecap:butt;stroke-linejoin:miter;stroke-miterlimit:4;stroke-dasharray:0.79375, 0.79375;stroke-dashoffset:0;stroke-opacity:1;marker-end:url(#TriangleOutM-2-4-9-1)"
       d="m 51.352522,210.92376 v -13.5688"
       id="path12329-4-8-6-7" />
    <path
       style="fill:none;stroke:#000000;stroke-width:0.79375;stroke-linecap:butt;stroke-linejoin:miter;stroke-miterlimit:4;stroke-dasharray:none;stroke-dashoffset:0;stroke-opacity:1;marker-end:url(#TriangleOutM-2-4-9-1-3);marker-start:url(#StopL)"
       d="m 59.06195,210.34568 v -13.5688"
       id="path12329-4-8-6-7-5" />
    <path
       style="fill:none;stroke:#000000;stroke-width:0.79375;stroke-linecap:butt;stroke-linejoin:miter;stroke-miterlimit:4;stroke-dasharray:none;stroke-dashoffset:0;stroke-opacity:1;marker-end:url(#TriangleOutM-7-9-5-2)"
       d="m 35.435906,229.84357 9.59459,-9.59459"
       id="path12329-3-7-8-1" />
    <path
       style="fill:none;stroke:#000000;stroke-width:0.79375;stroke-linecap:butt;stroke-linejoin:miter;stroke-miterlimit:4;stroke-dasharray:none;stroke-dashoffset:0;stroke-opacity:1;marker-end:url(#TriangleOutM-7-9-5-4-2)"
       d="M 22.884971,227.99584 44.460735,195.6247"
       id="path12329-3-7-8-2-1" />
    <text
       xml:space="preserve"
       style="font-size:5.29167px;line-height:1.25;font-family:'Meslo LG S DZ for Powerline';-inkscape-font-specification:'Meslo LG S DZ for Powerline';stroke-width:0.264583"
       x="19.399652"
       y="185.16342"
       id="text20738-6-9-0-7"><tspan
         sodipodi:role="line"
         id="tspan20736-4-5-4-7"
         style="stroke-width:0.264583"
         x="19.399652"
         y="185.16342">V</tspan></text>
    <text
       xml:space="preserve"
       style="font-size:5.29167px;line-height:1.25;font-family:'Meslo LG S DZ for Powerline';-inkscape-font-specification:'Meslo LG S DZ for Powerline';stroke-width:0.264583"
       x="55.601906"
       y="189.27721"
       id="text29224"><tspan
         sodipodi:role="line"
         id="tspan29222"
         style="stroke-width:0.264583"
         x="55.601906"
         y="189.27721">cq</tspan></text>
    <text
       xml:space="preserve"
       style="font-size:5.29167px;line-height:1.25;font-family:'Meslo LG S DZ for Powerline';-inkscape-font-specification:'Meslo LG S DZ for Powerline';stroke-width:0.264583"
       x="55.564365"
       y="217.46548"
       id="text29224-6"><tspan
         sodipodi:role="line"
         id="tspan29222-7"
         style="stroke-width:0.264583"
         x="55.564365"
         y="217.46548">cp</tspan></text>
  </g>
</svg>
